<svg width="35" height="35" viewBox="0 0 35 35" fill="none" xmlns="http://www.w3.org/2000/svg">
<path d="M17.5 17.5002C15.8958 17.5002 14.5226 16.929 13.3802 15.7866C12.2378 14.6443 11.6667 13.271 11.6667 11.6668C11.6667 10.0627 12.2378 8.6894 13.3802 7.54704C14.5226 6.40468 15.8958 5.8335 17.5 5.8335C19.1042 5.8335 20.4774 6.40468 21.6198 7.54704C22.7622 8.6894 23.3333 10.0627 23.3333 11.6668C23.3333 13.271 22.7622 14.6443 21.6198 15.7866C20.4774 16.929 19.1042 17.5002 17.5 17.5002ZM5.83333 29.1668V25.0835C5.83333 24.2571 6.04625 23.4978 6.47208 22.8056C6.89792 22.1134 7.46278 21.5845 8.16667 21.2189C9.67361 20.4654 11.2049 19.9006 12.7604 19.5243C14.316 19.1481 15.8958 18.9595 17.5 18.9585C19.1042 18.9575 20.684 19.1461 22.2396 19.5243C23.7951 19.9025 25.3264 20.4674 26.8333 21.2189C27.5382 21.5835 28.1035 22.1124 28.5294 22.8056C28.9552 23.4988 29.1676 24.2581 29.1667 25.0835V29.1668H5.83333ZM8.75 26.2502H26.25V25.0835C26.25 24.8161 26.1834 24.5731 26.0502 24.3543C25.917 24.1356 25.7406 23.9654 25.5208 23.8439C24.2083 23.1877 22.8837 22.6957 21.5469 22.3681C20.2101 22.0404 18.8611 21.8761 17.5 21.8752C16.1389 21.8742 14.7899 22.0385 13.4531 22.3681C12.1163 22.6977 10.7917 23.1896 9.47917 23.8439C9.26042 23.9654 9.08396 24.1356 8.94979 24.3543C8.81562 24.5731 8.74903 24.8161 8.75 25.0835V26.2502ZM17.5 14.5835C18.3021 14.5835 18.989 14.2981 19.5606 13.7275C20.1323 13.1568 20.4176 12.4699 20.4167 11.6668C20.4157 10.8638 20.1303 10.1774 19.5606 9.60766C18.9909 9.03794 18.304 8.75211 17.5 8.75016C16.696 8.74822 16.0096 9.03405 15.4408 9.60766C14.8721 10.1813 14.5862 10.8677 14.5833 11.6668C14.5804 12.466 14.8663 13.1529 15.4408 13.7275C16.0154 14.302 16.7018 14.5874 17.5 14.5835Z" fill="white"/>
</svg>
