<svg width="27" height="24" viewBox="0 0 27 24" fill="none" xmlns="http://www.w3.org/2000/svg">
<path d="M18.8756 3.89656L23.1045 8.12551C23.2827 8.30367 23.2827 8.59435 23.1045 8.77251L12.865 19.012L8.51416 19.4949C7.9328 19.5606 7.44052 19.0683 7.50615 18.4869L7.98906 14.1361L18.2286 3.89656C18.4067 3.7184 18.6974 3.7184 18.8756 3.89656ZM26.4708 2.82291L24.1828 0.534968C23.4702 -0.177672 22.3122 -0.177672 21.5948 0.534968L19.9351 2.19467C19.757 2.37283 19.757 2.66351 19.9351 2.84167L24.1641 7.07062C24.3423 7.24878 24.6329 7.24878 24.8111 7.07062L26.4708 5.41092C27.1834 4.69359 27.1834 3.53555 26.4708 2.82291ZM18.0035 16.2271V20.9999H3.00059V5.99697H13.7746C13.9246 5.99697 14.0652 5.93602 14.1731 5.83288L16.0484 3.95751C16.4048 3.60119 16.1516 2.99639 15.6499 2.99639H2.25044C1.00801 2.99639 0 4.0044 0 5.24683V21.75C0 22.9925 1.00801 24.0005 2.25044 24.0005H18.7537C19.9961 24.0005 21.0041 22.9925 21.0041 21.75V14.3517C21.0041 13.8501 20.3993 13.6016 20.043 13.9532L18.1676 15.8286C18.0645 15.9364 18.0035 16.0771 18.0035 16.2271Z" fill="black"/>
</svg>
