<?xml version="1.0" encoding="UTF-8"?>
<svg id="Layer_2" data-name="Layer 2" xmlns="http://www.w3.org/2000/svg" viewBox="0 0 26.04 26">
  <defs>
    <style>
      .cls-1 {
        fill: #fff;
      }
    </style>
  </defs>
  <g id="design">
    <path class="cls-1" d="M13.02,0C5.84,0,0,5.84,0,13.02c0,6.52,4.81,11.92,11.08,12.86l.68,.1V15.72h-3.08v-2.08h3.08v-2.77c0-1.7,.41-2.83,1.09-3.53s1.68-1.06,3.07-1.06c1.11,0,1.55,.07,1.96,.12v1.71h-1.45c-.82,0-1.5,.46-1.85,1.07-.35,.61-.46,1.34-.46,2.08v2.38h3.62l-.32,2.08h-3.3v10.28l.67-.09c6.35-.86,11.26-6.3,11.26-12.89C26.04,5.84,20.21,0,13.02,0Zm0,1.18c6.54,0,11.84,5.29,11.84,11.84,0,5.76-4.12,10.49-9.56,11.56v-7.68h3.13l.69-4.45h-3.82v-1.19c0-.61,.11-1.16,.3-1.49,.19-.33,.37-.47,.82-.47h2.63v-3.96l-.51-.07c-.35-.05-1.17-.16-2.63-.16-1.6,0-2.97,.44-3.92,1.42-.95,.99-1.42,2.45-1.42,4.35v1.58h-3.08v4.45h3.08v7.64C5.22,23.41,1.18,18.72,1.18,13.02,1.18,6.48,6.48,1.18,13.02,1.18Z"/>
  </g>
</svg>