<?xml version="1.0" encoding="UTF-8"?>
<svg id="Layer_2" data-name="Layer 2" xmlns="http://www.w3.org/2000/svg" viewBox="0 0 26 26">
  <defs>
    <style>
      .cls-1 {
        fill: #fff;
      }
    </style>
  </defs>
  <g id="design">
    <path class="cls-1" d="M7.68,0C3.45,0,0,3.45,0,7.68v10.64c0,4.24,3.45,7.68,7.68,7.68h10.64c4.24,0,7.68-3.45,7.68-7.68V7.68c0-4.24-3.45-7.68-7.68-7.68H7.68Zm0,1.18h10.64c3.6,0,6.5,2.9,6.5,6.5v10.64c0,3.6-2.9,6.5-6.5,6.5H7.68c-3.6,0-6.5-2.9-6.5-6.5V7.68C1.18,4.09,4.09,1.18,7.68,1.18Zm12.41,3.55c-.65,0-1.18,.53-1.18,1.18s.53,1.18,1.18,1.18,1.18-.53,1.18-1.18-.53-1.18-1.18-1.18Zm-7.09,1.77c-3.58,0-6.5,2.92-6.5,6.5s2.92,6.5,6.5,6.5,6.5-2.92,6.5-6.5-2.92-6.5-6.5-6.5Zm0,1.18c2.94,0,5.32,2.37,5.32,5.32s-2.37,5.32-5.32,5.32-5.32-2.37-5.32-5.32,2.37-5.32,5.32-5.32Z"/>
  </g>
</svg>