<?xml version="1.0" encoding="UTF-8"?>
<svg id="Layer_2" data-name="Layer 2" xmlns="http://www.w3.org/2000/svg" viewBox="0 0 35.02 26">
  <defs>
    <style>
      .cls-1 {
        fill: #fff;
      }
    </style>
  </defs>
  <g id="design">
    <path class="cls-1" d="M17.39,0C12.03,0,6.99,.41,4.31,.97c-1.79,.41-3.33,1.62-3.66,3.49-.32,1.95-.65,4.88-.65,8.53s.32,6.5,.73,8.53c.33,1.79,1.87,3.09,3.66,3.49,2.85,.57,7.72,.97,13.08,.97s10.24-.41,13.08-.97c1.79-.41,3.33-1.62,3.66-3.49,.33-2.03,.73-4.95,.81-8.61,0-3.66-.41-6.58-.81-8.61-.32-1.79-1.87-3.09-3.66-3.49-2.84-.41-7.8-.81-13.16-.81Zm0,1.62c5.85,0,10.56,.49,12.83,.89,1.22,.33,2.19,1.14,2.35,2.2,.49,2.6,.81,5.36,.81,8.21-.08,3.49-.49,6.33-.81,8.37-.24,1.54-1.87,2.03-2.35,2.2-2.93,.57-7.8,.97-12.68,.97s-9.83-.32-12.67-.97c-1.22-.33-2.19-1.14-2.35-2.2-.65-2.28-.9-5.28-.9-8.29,0-3.74,.33-6.5,.65-8.2,.24-1.55,1.95-2.03,2.35-2.2,2.68-.57,7.64-.97,12.76-.97Zm-4.39,4.88v13l11.38-6.5L13,6.5Zm1.62,2.76l6.5,3.74-6.5,3.74v-7.47Z"/>
  </g>
</svg>