<?xml version="1.0" encoding="UTF-8"?>
<svg id="Layer_2" data-name="Layer 2" xmlns="http://www.w3.org/2000/svg" viewBox="0 0 26.86 30.39">
  <defs>
    <style>
      .cls-1 {
        fill: #fff;
      }
    </style>
  </defs>
  <g id="design">
    <path class="cls-1" d="M26.41,12.29L14.43,.43c-.58-.58-1.53-.58-2.11,0L.44,12.18c-.59,.58-.59,1.53-.01,2.12,.58,.59,1.53,.59,2.12,.01L11.88,5.08l.04,23.81c0,.83,.67,1.5,1.5,1.5h0c.83,0,1.5-.67,1.5-1.5l-.04-23.78,9.42,9.32c.29,.29,.67,.43,1.06,.43s.77-.15,1.07-.45c.58-.59,.58-1.54-.01-2.12Z"/>
  </g>
</svg>