<?xml version="1.0" encoding="UTF-8"?>
<svg id="Layer_2" data-name="Layer 2" xmlns="http://www.w3.org/2000/svg" viewBox="0 0 190.99 190.99">
  <defs>
    <style>
      .cls-1, .cls-2 {
        fill: #fff;
      }

      .cls-3 {
        stroke-width: 3.43px;
      }

      .cls-3, .cls-4 {
        fill: none;
        stroke: #fff;
        stroke-linecap: round;
        stroke-linejoin: round;
      }

      .cls-2 {
        font-family: Gaegu-Bold, Gaegu;
        font-size: 35.65px;
        font-weight: 700;
      }

      .cls-4 {
        stroke-width: 3px;
      }
    </style>
  </defs>
  <g id="Layer_1-2" data-name="Layer 1">
    <g>
      <rect x="0" width="190.99" height="190.99"/>
      <text class="cls-2" transform="translate(2.3 162.3)"><tspan x="0" y="0">CAFE YEOHA</tspan></text>
      <path class="cls-3" d="M62.42,28.68s.04-1.92,.04-2.06c-.05-3.73-2.4-6.14-6.13-6.47-2.73-.24-7.1,2.47-6.19,5.65,0,0-22.49-4.62-32.92,27.58-.04,.11-1.15,.37-1.28,.42-1.02,.39-2.02,.88-2.92,1.51-3.36,2.33-3.63,6.17-1.85,9.62,1.6,3.1,4.77,3.84,7.98,4.21,0,0,24.8,49.11,66.98,61.85,0,0,20.29,13.05,39.86-.51,0,0,30.53,9.33,46.4-1.78,0,0,23.47-21.27-4.35-30.39,0,0-5.53-1.78-26.93,2.46,0,0,4.58-14.1-7.36-26.71-11.93-12.61-17.86-3.88-17.86-3.88,0,0-32.22-20.58-38.77-29.47-6.54-8.88-14.69-12.03-14.71-12.04Z"/>
      <path class="cls-3" d="M74.07,79.78c3.54,1.18,8.68,1.52,16.02-.46"/>
      <path class="cls-3" d="M73.04,63.57c2.9-.48,5.67,.11,5.67,.11"/>
      <path class="cls-3" d="M72.4,83.81c.87,4.51,1.07,11.65-4.28,16.95"/>
      <path class="cls-3" d="M55.73,86.35s.82-6.35,3.61-9.8"/>
      <path class="cls-3" d="M141.89,96.36c.01,1.67-.23,3.54-1.05,5.02-4.02,7.21-12.1-5.01-14.74-7.81-2.31-2.45-4.63-4.91-6.94-7.36-4.08-4.33-9.41-10.72-3.27-16.01"/>
      <path class="cls-3" d="M126,130.49s8.02-10.52-7.1-14.59c-15.12-4.07-37.5-9.99-30.89,16.15"/>
      <path class="cls-3" d="M138.61,103.79s-2.35,11.39-10.56,19.7"/>
      <path class="cls-1" d="M55.93,45.68c4.41,0,4.42-6.85,0-6.85s-4.42,6.85,0,6.85h0Z"/>
      <path class="cls-1" d="M35.18,64.61c4.41,0,4.42-6.85,0-6.85s-4.42,6.85,0,6.85h0Z"/>
      <path class="cls-1" d="M50.58,59.72c4.41,0,4.42-6.85,0-6.85s-4.42,6.85,0,6.85h0Z"/>
      <g>
        <line class="cls-3" x1="68.6" y1="38.13" x2="62.76" y2="43.16"/>
        <line class="cls-3" x1="71.67" y1="42.48" x2="64.42" y2="45.09"/>
        <line class="cls-3" x1="72.87" y1="46.15" x2="64.41" y2="48.05"/>
      </g>
      <g>
        <line class="cls-3" x1="29.65" y1="74.33" x2="36.45" y2="68.59"/>
        <line class="cls-3" x1="33.52" y1="78" x2="38.09" y2="70.53"/>
        <line class="cls-3" x1="37.12" y1="79.62" x2="40.81" y2="71.73"/>
      </g>
      <g>
        <path class="cls-4" d="M57,64.91s-1.13,.41-1.02,1.45c0,0-1.24,.81,.27,4.03s3.92,7.76,3.92,7.76c0,0,4.24,6.57,5.23,6.81,0,0,.87,.73,3.3-.12,0,0,1.71-.9,2.62-.82s1.86-.52,2.31-1.53,1.25-10.03-.08-16.82c0,0-.41-3.44-2.03-3.91,0,0-.46-.78-1.86-.66,0,0-1.15-.97-2.1-.36,0,0-1.11-.89-2.65-.08,0,0-1.98-1.24-4.27,1.27,0,0-1.55,.1-1.91,1.23,0,0-1.36,.18-1.72,1.77Z"/>
        <line class="cls-4" x1="61.12" y1="72.06" x2="66.11" y2="81.39"/>
        <line class="cls-4" x1="64.5" y1="68.1" x2="68.79" y2="80.01"/>
        <line class="cls-4" x1="69.6" y1="68.1" x2="71.6" y2="79.62"/>
      </g>
    </g>
  </g>
</svg>