<?xml version="1.0" encoding="UTF-8"?>
<svg id="Layer_2" data-name="Layer 2" xmlns="http://www.w3.org/2000/svg" viewBox="0 0 300 100">
  <defs>
    <style>
      .cls-1 {
        fill: #fff;
      }

      .cls-2 {
        fill: none;
      }
    </style>
  </defs>
  <g id="design">
    <g>
      <g>
        <g>
          <path class="cls-1" d="M65.22,56.02c-.1,.39-.33,.85-.7,1.4-.37,.55-.83,1.1-1.38,1.67-.55,.56-1.14,1.07-1.76,1.52-.63,.45-1.23,.77-1.81,.97-1.68,.74-3.56,1.11-5.65,1.11-.68,0-1.26-.02-1.76-.05-.5-.03-.99-.13-1.47-.29-.48-.16-.97-.42-1.45-.77-.48-.35-1.03-.87-1.64-1.55-.68-.71-1.21-1.41-1.6-2.1-.39-.69-.68-1.36-.87-2.01-.19-.64-.32-1.26-.39-1.86-.07-.6-.1-1.14-.1-1.62,0-1.06,.13-2.32,.39-3.77,.26-1.45,.95-3.22,2.08-5.32,.42-.77,.74-1.38,.97-1.84,.22-.45,.35-.76,.39-.92l3-1.84c1.03-.61,2.01-1.1,2.95-1.47,.93-.37,1.97-.56,3.09-.56h1.45c.64,0,1.28,.07,1.91,.22,.63,.14,1.18,.4,1.67,.77,.48,.37,.72,.91,.72,1.62,0,1.19-.71,1.88-2.13,2.08,.03,0-.06-.02-.29-.05-.23-.03-.53-.06-.92-.1-.39-.03-.82-.06-1.31-.1-.48-.03-.97-.05-1.45-.05-.84,0-1.68,.23-2.54,.7-.85,.47-1.89,1.26-3.12,2.39-.65,1.35-1.12,2.41-1.43,3.17-.31,.76-.46,1.26-.46,1.52-.35,.64-.53,1.59-.53,2.85,0,2.32,.42,3.99,1.26,5,.84,1.01,1.98,1.52,3.43,1.52,.93,0,2.38-.26,4.35-.77,1.19-.71,2.22-1.84,3.09-3.38,.55-.55,1.11-.82,1.69-.82,.61,0,1.16,.24,1.64,.73,.48,.48,.73,1.03,.73,1.64,0,.06,0,.12-.02,.17-.02,.05-.02,.1-.02,.17Z"/>
          <path class="cls-1" d="M92.09,62.98c-.13,.61-.72,.92-1.79,.92-.87,0-1.5-.19-1.89-.58-.16-.55-.39-1.22-.68-2.01-.29-.79-.63-1.7-1.01-2.73-.19-1.26-.38-2.14-.56-2.66-.18-.51-.4-.9-.65-1.16-.48,.03-1.18,.09-2.08,.17-.9,.08-1.85,.18-2.85,.29-1,.11-1.93,.26-2.8,.44-.87,.18-1.5,.36-1.88,.56-.16,.81-.35,1.69-.58,2.66-.23,.97-.5,2-.82,3.09-.1,.32-.32,.56-.68,.7-.35,.15-.79,.22-1.31,.22s-.96-.09-1.33-.27c-.37-.18-.56-.44-.56-.8,0-.64,.39-2.56,1.16-5.75-.03-.13-.05-.32-.05-.58,0-.42,.06-.94,.17-1.57,.11-.63,.23-1.23,.36-1.81,.13-.58,.25-1.08,.36-1.5,.11-.42,.17-.64,.17-.68l1.55-4.3c.06-.42,.23-.98,.51-1.69,.27-.71,.57-1.43,.89-2.17,.32-.74,.63-1.44,.92-2.1,.29-.66,.48-1.17,.58-1.52,.29-1.06,1.06-1.6,2.32-1.6,1.03,0,1.69,.39,1.98,1.16,.39,.71,.74,1.34,1.06,1.89,.32,.55,.67,1.15,1.04,1.81,.37,.66,.72,1.29,1.04,1.89,.32,.6,.6,1.13,.82,1.6,.22,.47,.35,.78,.39,.94,.26,.61,.58,1.31,.97,2.1,.39,.79,.85,1.67,1.4,2.63,.32,.42,.62,.97,.89,1.67,.27,.69,.52,1.39,.75,2.1,.23,.71,.42,1.35,.58,1.93,.16,.58,.31,.97,.43,1.16,0,.23,.07,.57,.22,1.04,.15,.47,.29,.96,.44,1.47,.15,.52,.28,1,.41,1.45,.13,.45,.19,.77,.19,.97,0,.16-.03,.37-.1,.63Zm-8.46-12.18c-.26-.77-.49-1.43-.7-1.98-.21-.55-.45-1.1-.72-1.64-.27-.55-.59-1.17-.94-1.86-.35-.69-.81-1.59-1.35-2.68-.74,1.35-1.27,2.92-1.59,4.69-.68,1.32-1.16,2.72-1.45,4.21,1-.29,1.8-.44,2.42-.44,.23,0,.39,.02,.48,.05,.55-.13,1.21-.19,1.98-.19s1.4-.05,1.88-.15Z"/>
          <path class="cls-1" d="M116.55,39.58c.1,.26,.15,.55,.15,.87,0,.58-.15,1.17-.46,1.76-.31,.6-.72,.89-1.23,.89-.1,0-.32-.05-.68-.14-.35-.1-.75-.21-1.18-.34-.44-.13-.87-.24-1.31-.34-.44-.1-.78-.15-1.04-.15h-.39c-1.03-.26-2.02-.43-2.97-.53-.95-.1-1.86-.14-2.73-.14-.26,0-.45,.1-.58,.31-.13,.21-.23,.46-.29,.75-.06,.29-.1,.6-.1,.92v1.16c0,.19,0,.48-.02,.87-.02,.39-.04,.77-.07,1.16-.03,.39-.06,.73-.07,1.04-.02,.31-.02,.51-.02,.6l3.58-.1s.23-.02,.6-.05c.37-.03,.81-.07,1.33-.12,.51-.05,1.04-.09,1.57-.12,.53-.03,.96-.05,1.28-.05,.68,0,1.18,.22,1.5,.65,.32,.43,.48,.94,.48,1.52s-.1,1.01-.31,1.31c-.21,.29-.56,.5-1.04,.63-.48,.13-1.14,.23-1.96,.29-.82,.06-1.85,.16-3.07,.29h-2.22c-.48,0-1.03,.02-1.64,.05l.1,4.79c-.03,.26-.05,.5-.05,.72v.72c0,1.32,.16,2.35,.48,3.09-.1,1.51-.79,2.27-2.08,2.27-.68,0-1.2-.23-1.57-.7-.37-.47-.64-.97-.82-1.5-.18-.53-.28-1.01-.31-1.43-.03-.42-.05-.56-.05-.43-.13-.68-.23-1.35-.29-2.03-.06-.68-.1-1.35-.1-2.03,0-.48,0-1,.02-1.55,.02-.55,.02-1.14,.02-1.79v-2.47c0-.87-.03-1.8-.1-2.8,.1-4.7,.64-8.01,1.64-9.91,.19-.26,.93-.39,2.22-.39,2.48,0,3.72,.02,3.72,.05h.15c.45,0,1.71,.23,3.77,.68,2.87,.03,4.91,.6,6.14,1.69Z"/>
          <path class="cls-1" d="M139.02,59.16c1.06,.55,1.6,1.34,1.6,2.37,0,.68-.17,1.16-.51,1.45-.34,.29-.82,.49-1.45,.6-.63,.11-1.41,.18-2.34,.19-.93,.02-1.98,.06-3.14,.12-.39-.13-1.81-.26-4.25-.39-.36,.03-.69,.06-1.02,.07-.32,.02-.63,.02-.92,.02-1.74,0-2.93-.26-3.58-.77-.16-1.29-.28-2.48-.36-3.58-.08-1.1-.12-2.09-.12-3,0-1.42,.06-2.65,.17-3.7,.11-1.05,.17-1.99,.17-2.83,0-1.03-.05-1.84-.15-2.42l.29-5.08c.13-1.22,.28-2.27,.46-3.14,.18-.87,.39-1.53,.65-1.98,.19-.26,1.16-.58,2.9-.97l3.09-.68c.19-.03,.6-.08,1.21-.14,.61-.06,1.25-.13,1.91-.19,.66-.06,1.25-.11,1.76-.15,.51-.03,.76-.05,.72-.05h.19c.35,0,.72,.24,1.09,.72,.37,.48,.56,1.05,.56,1.69,0,.32,0,.61-.02,.87-.02,.26-.12,.48-.31,.65-.19,.18-.52,.31-.97,.41-.45,.1-1.11,.16-1.98,.19-1.42,.07-2.39,.21-2.9,.43h-.24c-.84,0-1.88,.19-3.14,.58-.13,.16-.23,.44-.29,.85-.06,.4-.11,.82-.14,1.26-.03,.43-.06,.81-.07,1.11-.02,.31-.02,.41-.02,.31-.03,.16-.06,.32-.07,.48-.02,.16-.02,.37-.02,.63,0,.23,0,.48,.02,.75,.02,.27,.04,.57,.07,.89,1-.1,1.81-.2,2.44-.31,.63-.11,1.12-.17,1.47-.17,.68,0,1.34-.02,1.98-.05,.64-.03,1.22,0,1.72,.12,.5,.11,.89,.34,1.18,.68,.29,.34,.44,.88,.44,1.62,0,.84-.27,1.39-.8,1.64-.53,.26-1.46,.4-2.78,.43-1.55,.06-2.48,.13-2.8,.19-.19,0-.39,0-.6-.02-.21-.02-.44-.02-.7-.02-.16,0-.35,0-.56-.02-.21-.02-.41-.02-.6,0-.19,.02-.36,.08-.51,.19-.15,.11-.22,.31-.22,.6,0,.19,0,.44,.02,.75,.02,.31,.02,.59,.02,.85,0,.39,0,.77-.02,1.16-.02,.39-.03,.8-.05,1.23-.02,.43-.03,.93-.05,1.47-.02,.55-.02,1.19-.02,1.93,.19,.03,.57,.07,1.14,.1,.56,.03,1.16,.07,1.79,.1,.63,.03,1.23,.07,1.81,.12,.58,.05,.97,.09,1.16,.12,.03,0,.26-.02,.68-.05,.42-.03,1.03-.08,1.84-.14,1.1-.1,1.97-.15,2.61-.15h.58Z"/>
          <path class="cls-1" d="M185.47,39.25c-.26,.64-.48,1.14-.68,1.47-.19,.34-.42,.66-.68,.97-.26,.31-.6,.68-1.04,1.11s-1.04,1.06-1.81,1.86c-.64,.68-1.17,1.23-1.57,1.67-.4,.43-.79,.83-1.16,1.18-.37,.35-.77,.73-1.18,1.14-.42,.4-.95,.91-1.6,1.52,0,.45-.02,1-.05,1.64-.03,.65-.05,1.39-.05,2.22,0,.29,.02,.64,.05,1.04,.03,.4,.07,.8,.12,1.18,.05,.39,.09,.75,.12,1.09,.03,.34,.05,.6,.05,.8v1.35c0,1.19,.06,2.16,.19,2.9-.26,.97-1.01,1.45-2.27,1.45-.55,0-.97-.16-1.28-.48-.31-.32-.54-.75-.7-1.28-.16-.53-.27-1.14-.31-1.84-.05-.69-.07-1.43-.07-2.2,0-.26,0-.48,.02-.68,.02-.19,.04-.37,.07-.53-.07-1.39-.12-2.54-.17-3.48-.05-.93-.07-1.64-.07-2.13v-.53c-.48-.51-1.1-1.19-1.84-2.03-.74-.84-1.61-1.82-2.61-2.95-.16-.32-.42-.72-.77-1.21-.35-.48-.72-.96-1.09-1.43-.37-.47-.69-.9-.97-1.31-.27-.4-.41-.7-.41-.89,0-.55,.23-1.08,.7-1.6,.47-.51,1.02-.77,1.67-.77,.29,0,.52,.04,.7,.12,.18,.08,.35,.21,.53,.39,.18,.18,.37,.42,.58,.73,.21,.31,.49,.68,.85,1.14,.35,.45,.65,.85,.89,1.21,.24,.35,.44,.66,.6,.92,.1,.1,.3,.31,.6,.63,.31,.32,.64,.67,.99,1.04,.35,.37,.68,.72,.99,1.04,.31,.32,.52,.53,.65,.63,.35-.32,.81-.71,1.35-1.16,.55-.45,1.19-.98,1.93-1.6,.13-.26,.45-.76,.97-1.5,.51-.74,1.1-1.52,1.76-2.34,.66-.82,1.31-1.58,1.96-2.27,.64-.69,1.16-1.14,1.55-1.33,.23,.1,.48,.25,.77,.46,.29,.21,.56,.45,.82,.73,.26,.27,.47,.56,.63,.85,.16,.29,.24,.56,.24,.82v.24Z"/>
          <path class="cls-1" d="M206.78,59.16c1.06,.55,1.6,1.34,1.6,2.37,0,.68-.17,1.16-.51,1.45-.34,.29-.82,.49-1.45,.6-.63,.11-1.41,.18-2.34,.19-.93,.02-1.98,.06-3.14,.12-.39-.13-1.81-.26-4.25-.39-.36,.03-.69,.06-1.02,.07-.32,.02-.63,.02-.92,.02-1.74,0-2.93-.26-3.58-.77-.16-1.29-.28-2.48-.36-3.58-.08-1.1-.12-2.09-.12-3,0-1.42,.06-2.65,.17-3.7,.11-1.05,.17-1.99,.17-2.83,0-1.03-.05-1.84-.14-2.42l.29-5.08c.13-1.22,.28-2.27,.46-3.14,.18-.87,.39-1.53,.65-1.98,.19-.26,1.16-.58,2.9-.97l3.09-.68c.19-.03,.6-.08,1.21-.14,.61-.06,1.25-.13,1.91-.19,.66-.06,1.25-.11,1.76-.15,.51-.03,.76-.05,.72-.05h.19c.35,0,.72,.24,1.09,.72,.37,.48,.56,1.05,.56,1.69,0,.32,0,.61-.02,.87-.02,.26-.12,.48-.31,.65-.19,.18-.52,.31-.97,.41-.45,.1-1.11,.16-1.98,.19-1.42,.07-2.39,.21-2.9,.43h-.24c-.84,0-1.88,.19-3.14,.58-.13,.16-.23,.44-.29,.85-.06,.4-.11,.82-.14,1.26-.03,.43-.06,.81-.07,1.11-.02,.31-.02,.41-.02,.31-.03,.16-.06,.32-.07,.48-.02,.16-.02,.37-.02,.63,0,.23,0,.48,.02,.75,.02,.27,.04,.57,.07,.89,1-.1,1.81-.2,2.44-.31,.63-.11,1.12-.17,1.47-.17,.68,0,1.34-.02,1.98-.05,.64-.03,1.22,0,1.72,.12,.5,.11,.89,.34,1.18,.68,.29,.34,.44,.88,.44,1.62,0,.84-.27,1.39-.8,1.64-.53,.26-1.46,.4-2.78,.43-1.55,.06-2.48,.13-2.8,.19-.19,0-.39,0-.6-.02-.21-.02-.44-.02-.7-.02-.16,0-.35,0-.56-.02-.21-.02-.41-.02-.6,0-.19,.02-.36,.08-.51,.19-.15,.11-.22,.31-.22,.6,0,.19,0,.44,.02,.75,.02,.31,.02,.59,.02,.85,0,.39,0,.77-.02,1.16-.02,.39-.03,.8-.05,1.23-.02,.43-.03,.93-.05,1.47-.02,.55-.02,1.19-.02,1.93,.19,.03,.57,.07,1.14,.1,.56,.03,1.16,.07,1.79,.1,.63,.03,1.23,.07,1.81,.12,.58,.05,.97,.09,1.16,.12,.03,0,.26-.02,.68-.05,.42-.03,1.03-.08,1.84-.14,1.1-.1,1.97-.15,2.61-.15h.58Z"/>
          <path class="cls-1" d="M234.29,53.07c-.42,1.68-1.61,3.61-3.58,5.8-.26,.1-.59,.29-.99,.58-.4,.29-.92,.59-1.55,.89-.63,.31-1.39,.57-2.3,.8-.9,.23-1.97,.34-3.19,.34-2.45,0-4.49-.65-6.14-1.96-1.64-1.31-2.92-3.36-3.82-6.16-.03-.23-.05-.45-.05-.68v-.72c0-2,.21-3.76,.63-5.29,.42-1.53,.98-2.86,1.69-3.99,.71-1.13,1.52-2.08,2.44-2.85,.92-.77,1.88-1.4,2.88-1.88,1.64-.45,3.25-.68,4.83-.68,1.13,0,2.24,.29,3.33,.87,1.1,.58,2.07,1.4,2.92,2.46,.85,1.06,1.55,2.36,2.08,3.89,.53,1.53,.83,3.26,.89,5.2l-.1,3.38Zm-4.45-.15c.23-1.32,.34-2.35,.34-3.09,0-1.22-.18-2.35-.53-3.38-.35-1.03-.77-1.93-1.26-2.68-.48-.76-.99-1.35-1.52-1.79-.53-.44-.97-.65-1.33-.65-1.71,0-3.1,.38-4.18,1.14-1.08,.76-1.93,1.67-2.54,2.73-.61,1.06-1.03,2.17-1.26,3.33-.23,1.16-.34,2.14-.34,2.95,0,.74,.12,1.46,.36,2.15,.24,.69,.6,1.31,1.06,1.84,.47,.53,1.02,.96,1.67,1.28,.64,.32,1.39,.48,2.22,.48,1.96,0,3.51-.36,4.64-1.09,1.13-.72,2.01-1.8,2.66-3.21Z"/>
          <path class="cls-1" d="M262.37,57.56c0,.19,.02,.43,.05,.72,.03,.29,.06,.6,.1,.92,.03,.32,.06,.62,.1,.89,.03,.27,.05,.48,.05,.6,0,1.39-.63,2.08-1.89,2.08-1.03,0-1.76-.34-2.17-1.01l-.44-3.48v-.39c0-.22-.02-.51-.05-.87-.03-.35-.07-.71-.12-1.06-.05-.35-.09-.68-.12-.97-.03-.29-.05-.5-.05-.63,.03-.22,.06-.44,.07-.65,.02-.21,.02-.43,.02-.65,0-.35-.02-.68-.05-.99-.03-.31-.08-.62-.14-.94-.26,.06-.81,.15-1.64,.27-.84,.11-1.87,.17-3.09,.17-.55,0-1.06-.02-1.52-.05-.47-.03-.89-.08-1.28-.15-.39-.19-1.63-.29-3.72-.29-.06,.74-.11,1.43-.14,2.05-.03,.63-.05,1.2-.05,1.72,0,1.06,.08,1.87,.24,2.42,.13,1.58,.23,2.77,.31,3.58,.08,.81,.14,1.39,.17,1.74,.03,.35,.05,.56,.05,.63v.24c0,.93-.64,1.4-1.93,1.4-.45,0-.85-.09-1.18-.27-.34-.18-.62-.48-.85-.92-.23-.43-.4-1.04-.53-1.81-.13-.77-.21-1.74-.24-2.9-.19-.81-.29-1.87-.29-3.19,0-.42,0-.81,.02-1.16,.02-.35,.02-.66,.02-.92s0-.47-.02-.65c-.02-.18-.02-.33-.02-.46,0,.07,0-.14,0-.63s.02-1.06,.07-1.72c.05-.66,.1-1.32,.17-1.98,.06-.66,.16-1.15,.29-1.47,0-.06,0-.14-.02-.22-.02-.08-.02-.17-.02-.27,0-.71,.03-1.34,.1-1.89,.06-.55,.14-1.08,.22-1.6,.08-.51,.18-1.06,.29-1.62,.11-.56,.22-1.23,.31-2.01,.16-1.1,.35-1.9,.58-2.42,.22-.51,.74-.77,1.55-.77,.42,0,.86,.15,1.33,.44,.47,.29,.7,.71,.7,1.26,0,.29,0,.67-.02,1.14-.02,.47-.06,1.06-.12,1.79-.07,.73-.15,1.6-.24,2.63-.1,1.03-.23,2.26-.39,3.67,.42,.16,1,.24,1.74,.24,.26,0,.47,0,.65-.02,.18-.02,.35-.02,.51-.02,.45,0,.76,.04,.94,.12,.18,.08,.47,.12,.89,.12,.87,0,1.53-.02,1.98-.07,.45-.05,.68-.06,.68-.02h.72c.64,0,1.25-.02,1.81-.07,.56-.05,.85-.25,.85-.6,0-.87-.15-2.06-.44-3.58v-.87c0-.45-.02-.89-.05-1.33-.03-.43-.1-.83-.19-1.18,0-1.29,.81-1.93,2.42-1.93,.74,0,1.26,.38,1.57,1.14,.31,.76,.52,1.65,.63,2.68,.11,1.03,.18,2.09,.19,3.17,.02,1.08,.12,1.94,.31,2.59,0,.84,.02,1.83,.07,2.97,.05,1.14,.14,2.47,.27,3.99-.03,.16-.05,.36-.05,.58v1.67c0,.34,.02,.7,.05,1.09Z"/>
          <path class="cls-1" d="M291.42,62.98c-.13,.61-.73,.92-1.79,.92-.87,0-1.5-.19-1.89-.58-.16-.55-.39-1.22-.68-2.01-.29-.79-.63-1.7-1.01-2.73-.19-1.26-.38-2.14-.56-2.66-.18-.51-.4-.9-.65-1.16-.48,.03-1.18,.09-2.08,.17-.9,.08-1.85,.18-2.85,.29-1,.11-1.93,.26-2.8,.44-.87,.18-1.5,.36-1.89,.56-.16,.81-.36,1.69-.58,2.66-.23,.97-.5,2-.82,3.09-.1,.32-.32,.56-.68,.7-.35,.15-.79,.22-1.31,.22s-.96-.09-1.33-.27c-.37-.18-.56-.44-.56-.8,0-.64,.39-2.56,1.16-5.75-.03-.13-.05-.32-.05-.58,0-.42,.06-.94,.17-1.57,.11-.63,.23-1.23,.36-1.81,.13-.58,.25-1.08,.36-1.5,.11-.42,.17-.64,.17-.68l1.55-4.3c.06-.42,.23-.98,.51-1.69,.27-.71,.57-1.43,.89-2.17,.32-.74,.63-1.44,.92-2.1,.29-.66,.48-1.17,.58-1.52,.29-1.06,1.06-1.6,2.32-1.6,1.03,0,1.69,.39,1.98,1.16,.39,.71,.74,1.34,1.06,1.89,.32,.55,.67,1.15,1.04,1.81,.37,.66,.72,1.29,1.04,1.89,.32,.6,.6,1.13,.82,1.6,.23,.47,.35,.78,.39,.94,.26,.61,.58,1.31,.97,2.1,.39,.79,.85,1.67,1.4,2.63,.32,.42,.62,.97,.89,1.67,.27,.69,.52,1.39,.75,2.1,.22,.71,.42,1.35,.58,1.93,.16,.58,.31,.97,.43,1.16,0,.23,.07,.57,.22,1.04,.15,.47,.29,.96,.44,1.47,.14,.52,.28,1,.41,1.45,.13,.45,.19,.77,.19,.97,0,.16-.03,.37-.1,.63Zm-8.46-12.18c-.26-.77-.49-1.43-.7-1.98-.21-.55-.45-1.1-.73-1.64-.27-.55-.59-1.17-.94-1.86-.35-.69-.81-1.59-1.35-2.68-.74,1.35-1.27,2.92-1.6,4.69-.68,1.32-1.16,2.72-1.45,4.21,1-.29,1.8-.44,2.42-.44,.23,0,.39,.02,.48,.05,.55-.13,1.21-.19,1.98-.19s1.4-.05,1.89-.15Z"/>
        </g>
        <g>
          <path class="cls-1" d="M21.72,63.84c-1.17,0-1.89-.31-2.25-.53-.71-.33-2.49-1.79-7.6-9.71-.02-.03-.04-.06-.05-.09-.03-.06-3.32-6.23-5.36-10.6-1.76-3.77-1.13-5.68-.49-6.55,.12-1.14,.89-1.92,1.59-2.36,.54-1.48,1.62-2.25,2.51-2.59,.68-1.11,1.93-1.63,2.89-1.8,2.47-2.48,4.99-2.45,6.43-1.92,1.49-.57,2.81-.33,3.69,.08,1.19-.35,2.39,.11,3.17,.63,1.55,0,2.46,.66,2.9,1.12,2.5,1.12,3.15,5.23,3.27,6.21,1.83,9.37,.77,21.88,.02,23.58-.81,1.85-2.59,3-4.43,2.86-.52-.04-1.89,.47-2.86,.98-.05,.03-.11,.05-.17,.07-1.34,.47-2.41,.63-3.25,.63Zm-.86-2.73c.2,.09,1.13,.38,3.17-.32,.6-.31,2.73-1.33,4.18-1.22,.72,.05,1.48-.48,1.85-1.31,.47-1.22,1.56-13.15-.2-22.09,0-.03-.01-.07-.02-.1-.19-1.56-.95-3.97-1.84-4.22-.36-.1-.59-.22-.74-.55-.09-.09-.45-.37-1.31-.3-.34,.03-.69-.08-.95-.3-.16-.13-.93-.64-1.32-.39-.47,.3-1.08,.27-1.52-.08-.07-.05-.93-.63-2.19,.03-.41,.22-.9,.2-1.29-.05-.17-.09-1.91-.97-4.16,1.5-.23,.25-.54,.4-.88,.42-.25,.02-1.26,.21-1.44,.77-.15,.48-.57,.83-1.07,.9-.14,.03-.97,.23-1.25,1.41-.1,.42-.4,.77-.81,.92-.04,.01-.59,.25-.55,.61,.05,.44-.13,.88-.48,1.16-.2,.26-.43,1.42,.74,3.92,1.92,4.1,4.97,9.85,5.28,10.43,2.4,3.72,5.48,8.01,6.4,8.67,.16,.04,.25,.07,.38,.2Zm-.33-.17s0,0,0,0h0ZM7.96,37.96s0,0,0,0c0,0,0,0,0,0Zm0,0s0,0,0,0c0,0,0,0,0,0Zm0,0s0,0,0,0h0Zm0,0s0,0,0,0c0,0,0,0,0,0Zm.66-3.05h0Zm18.61-3.64h0Z"/>
          <path class="cls-1" d="M21,58.59c-.46,0-.91-.25-1.15-.69l-6.77-12.67c-.34-.63-.1-1.42,.53-1.76,.63-.34,1.42-.1,1.76,.53l6.77,12.67c.34,.63,.1,1.42-.53,1.76-.19,.1-.4,.15-.61,.15Z"/>
          <path class="cls-1" d="M24.64,56.72c-.53,0-1.03-.33-1.22-.86l-5.83-16.18c-.24-.67,.11-1.42,.78-1.66,.67-.24,1.42,.11,1.66,.78l5.83,16.18c.24,.67-.11,1.42-.78,1.66-.15,.05-.29,.08-.44,.08Z"/>
          <path class="cls-1" d="M28.46,56.18c-.62,0-1.17-.44-1.28-1.08l-2.71-15.64c-.12-.71,.35-1.38,1.06-1.5,.71-.12,1.38,.35,1.5,1.06l2.71,15.64c.12,.71-.35,1.38-1.06,1.5-.07,.01-.15,.02-.22,.02Z"/>
        </g>
      </g>
      <rect class="cls-2" width="300" height="100"/>
    </g>
  </g>
</svg>