<?xml version="1.0" encoding="UTF-8"?>
<svg id="Layer_2" data-name="Layer 2" xmlns="http://www.w3.org/2000/svg" viewBox="0 0 270 90">
  <defs>
    <style>
      .cls-1, .cls-2 {
        fill: none;
      }

      .cls-2 {
        stroke: #685244;
        stroke-miterlimit: 10;
        stroke-width: 3px;
      }

      .cls-3 {
        fill: #685244;
        font-family: Gaegu-Bold, Gaegu;
        font-size: 43.5px;
        font-weight: 700;
      }
    </style>
  </defs>
  <g id="gnb_2depth">
    <g>
      <g>
        <text class="cls-3" transform="translate(37.55 56.29)"><tspan x="0" y="0">CAFE YEOHA</tspan></text>
        <g>
          <path class="cls-2" d="M7.77,31.41s-1.38,.5-1.24,1.77c0,0-1.51,.99,.34,4.93,1.85,3.95,4.8,9.49,4.8,9.49,0,0,5.18,8.03,6.4,8.32,0,0,1.07,.9,4.03-.14,0,0,2.09-1.1,3.21-1.01,1.12,.09,2.28-.63,2.82-1.87s1.53-12.27-.1-20.57c0,0-.5-4.2-2.49-4.79,0,0-.56-.95-2.27-.81,0,0-1.41-1.19-2.57-.44,0,0-1.36-1.09-3.25-.09,0,0-2.43-1.52-5.22,1.55,0,0-1.9,.12-2.33,1.5,0,0-1.66,.21-2.11,2.16Z"/>
          <line class="cls-2" x1="12.81" y1="40.16" x2="18.9" y2="51.56"/>
          <line class="cls-2" x1="16.93" y1="35.32" x2="22.18" y2="49.88"/>
          <line class="cls-2" x1="23.17" y1="35.32" x2="25.62" y2="49.39"/>
        </g>
      </g>
      <rect class="cls-1" width="270" height="90"/>
    </g>
  </g>
</svg>