<?xml version="1.0" encoding="UTF-8"?>
<svg id="Layer_2" data-name="Layer 2" xmlns="http://www.w3.org/2000/svg" viewBox="0 0 190.99 190.99">
  <defs>
    <style>
      .cls-1 {
        fill: #fff;
      }
    </style>
  </defs>
  <g id="design">
    <g>
      <rect x="0" width="190.99" height="190.99"/>
      <g>
        <path class="cls-1" d="M19.63,157.48c-.07,.29-.24,.63-.52,1.03-.27,.4-.61,.81-1.02,1.23-.4,.42-.84,.79-1.3,1.12-.46,.33-.91,.57-1.34,.71-1.24,.55-2.63,.82-4.17,.82-.5,0-.93-.01-1.3-.04-.37-.02-.73-.09-1.09-.21s-.71-.31-1.07-.57-.76-.64-1.21-1.14c-.5-.52-.89-1.04-1.18-1.55-.29-.51-.5-1-.64-1.48-.14-.47-.24-.93-.29-1.37-.05-.44-.07-.84-.07-1.19,0-.78,.09-1.71,.29-2.78,.19-1.07,.7-2.38,1.53-3.92,.31-.57,.55-1.02,.71-1.36,.17-.33,.26-.56,.29-.68l2.21-1.36c.76-.45,1.49-.81,2.17-1.09s1.45-.41,2.28-.41h1.07c.47,0,.94,.05,1.41,.16,.46,.11,.87,.3,1.23,.57,.36,.27,.54,.67,.54,1.19,0,.88-.52,1.39-1.57,1.53,.02,0-.05-.01-.21-.04s-.39-.05-.68-.07-.61-.05-.96-.07-.71-.04-1.07-.04c-.62,0-1.24,.17-1.87,.52s-1.4,.93-2.3,1.76c-.48,1-.83,1.78-1.05,2.33-.23,.56-.34,.93-.34,1.12-.26,.48-.39,1.18-.39,2.1,0,1.71,.31,2.94,.93,3.69,.62,.75,1.46,1.12,2.53,1.12,.69,0,1.76-.19,3.21-.57,.88-.52,1.64-1.35,2.28-2.5,.4-.4,.82-.61,1.25-.61,.45,0,.86,.18,1.21,.54,.36,.36,.53,.76,.53,1.21,0,.05,0,.09-.02,.12-.01,.04-.02,.08-.02,.12Z"/>
        <path class="cls-1" d="M39.45,162.62c-.09,.45-.53,.68-1.32,.68-.64,0-1.1-.14-1.39-.43-.12-.4-.29-.9-.5-1.48-.21-.58-.46-1.25-.75-2.01-.14-.93-.28-1.58-.41-1.96-.13-.38-.29-.67-.48-.86-.36,.02-.87,.07-1.53,.12-.67,.06-1.37,.13-2.1,.21-.74,.08-1.43,.19-2.07,.32s-1.11,.27-1.39,.41c-.12,.59-.26,1.25-.43,1.96-.17,.71-.37,1.47-.61,2.28-.07,.24-.24,.41-.5,.52-.26,.11-.58,.16-.96,.16s-.71-.07-.98-.2c-.27-.13-.41-.33-.41-.59,0-.47,.29-1.89,.86-4.24-.02-.09-.04-.24-.04-.43,0-.31,.04-.7,.12-1.16,.08-.46,.17-.91,.27-1.34s.18-.8,.27-1.1c.08-.31,.12-.48,.12-.5l1.14-3.17c.05-.31,.17-.72,.37-1.25s.42-1.06,.66-1.6c.24-.55,.46-1.06,.68-1.55s.36-.86,.43-1.12c.21-.78,.79-1.18,1.71-1.18,.76,0,1.25,.29,1.46,.86,.29,.52,.55,.99,.78,1.39,.24,.4,.49,.85,.77,1.34,.27,.49,.53,.95,.77,1.39,.24,.44,.44,.83,.61,1.18s.26,.58,.29,.69c.19,.45,.43,.97,.71,1.55,.29,.58,.63,1.23,1.03,1.94,.24,.31,.46,.72,.66,1.23,.2,.51,.39,1.03,.55,1.55s.31,1,.43,1.43,.23,.71,.32,.86c0,.17,.05,.42,.16,.77,.11,.34,.21,.71,.32,1.09,.11,.38,.21,.74,.3,1.07s.14,.57,.14,.71c0,.12-.02,.27-.07,.46Zm-6.24-8.98c-.19-.57-.36-1.06-.52-1.46-.16-.4-.33-.81-.54-1.21s-.43-.86-.69-1.37c-.26-.51-.59-1.17-1-1.98-.55,1-.94,2.15-1.18,3.46-.5,.97-.86,2.01-1.07,3.1,.74-.21,1.33-.32,1.78-.32,.17,0,.29,.01,.36,.04,.4-.09,.89-.14,1.46-.14s1.03-.04,1.39-.11Z"/>
        <path class="cls-1" d="M57.49,145.36c.07,.19,.11,.4,.11,.64,0,.43-.11,.86-.34,1.3-.23,.44-.53,.66-.91,.66-.07,0-.24-.04-.5-.11-.26-.07-.55-.15-.87-.25-.32-.09-.64-.18-.96-.25-.32-.07-.58-.11-.77-.11h-.29c-.76-.19-1.49-.32-2.19-.39s-1.37-.11-2.01-.11c-.19,0-.33,.08-.43,.23-.1,.16-.17,.34-.21,.55-.05,.21-.07,.44-.07,.68v.86c0,.14,0,.36-.02,.64s-.03,.57-.05,.86-.04,.54-.05,.77c-.01,.23-.02,.37-.02,.45l2.64-.07s.17-.01,.45-.04,.6-.05,.98-.09c.38-.04,.77-.06,1.16-.09,.39-.02,.71-.04,.94-.04,.5,0,.87,.16,1.11,.48,.24,.32,.36,.69,.36,1.12s-.08,.75-.23,.96c-.16,.21-.41,.37-.77,.46s-.84,.17-1.44,.21c-.61,.05-1.36,.12-2.26,.21h-1.64c-.36,0-.76,.01-1.21,.04l.07,3.53c-.02,.19-.04,.37-.04,.53v.54c0,.97,.12,1.74,.36,2.28-.07,1.12-.58,1.68-1.53,1.68-.5,0-.89-.17-1.16-.52-.27-.34-.48-.71-.61-1.11-.13-.39-.21-.74-.23-1.05-.02-.31-.04-.42-.04-.32-.09-.5-.17-1-.21-1.5s-.07-1-.07-1.5c0-.36,0-.74,.02-1.14,.01-.4,.02-.84,.02-1.32v-1.82c0-.64-.02-1.33-.07-2.07,.07-3.47,.47-5.91,1.21-7.31,.14-.19,.69-.29,1.64-.29,1.83,0,2.75,.01,2.75,.04h.11c.33,0,1.26,.17,2.78,.5,2.11,.02,3.62,.44,4.53,1.25Z"/>
        <path class="cls-1" d="M74.07,159.8c.78,.41,1.18,.99,1.18,1.75,0,.5-.12,.86-.37,1.07-.25,.21-.61,.36-1.07,.45-.46,.08-1.04,.13-1.73,.14-.69,.01-1.46,.04-2.32,.09-.29-.09-1.33-.19-3.14-.29-.26,.02-.51,.04-.75,.05-.24,.01-.46,.02-.68,.02-1.28,0-2.16-.19-2.64-.57-.12-.95-.21-1.83-.27-2.64-.06-.81-.09-1.54-.09-2.21,0-1.05,.04-1.96,.12-2.73,.08-.77,.12-1.47,.12-2.08,0-.76-.04-1.36-.11-1.78l.21-3.74c.09-.9,.21-1.68,.34-2.32,.13-.64,.29-1.13,.48-1.46,.14-.19,.86-.43,2.14-.71l2.28-.5c.14-.02,.44-.06,.89-.11,.45-.05,.92-.09,1.41-.14,.49-.05,.92-.08,1.3-.11,.38-.02,.56-.04,.53-.04h.14c.26,0,.53,.18,.8,.54,.27,.36,.41,.77,.41,1.25,0,.24,0,.45-.02,.64s-.09,.35-.23,.48-.38,.23-.71,.3c-.33,.07-.82,.12-1.46,.14-1.05,.05-1.76,.15-2.14,.32h-.18c-.62,0-1.39,.14-2.32,.43-.09,.12-.17,.33-.21,.62-.05,.3-.08,.61-.11,.93-.02,.32-.04,.59-.05,.82-.01,.23-.02,.3-.02,.23-.02,.12-.04,.24-.05,.36-.01,.12-.02,.27-.02,.46,0,.17,0,.35,.02,.55,.01,.2,.03,.42,.05,.66,.74-.07,1.34-.15,1.8-.23,.46-.08,.83-.12,1.09-.12,.5,0,.99-.01,1.46-.04,.48-.02,.9,0,1.27,.09,.37,.08,.66,.25,.87,.5,.21,.25,.32,.65,.32,1.19,0,.62-.2,1.02-.59,1.21s-1.08,.3-2.05,.32c-1.14,.05-1.83,.1-2.07,.14-.14,0-.29,0-.45-.02s-.33-.02-.52-.02c-.12,0-.26,0-.41-.02-.16-.01-.3-.01-.45,0-.14,.01-.27,.06-.38,.14-.11,.08-.16,.23-.16,.45,0,.14,0,.33,.02,.55s.02,.43,.02,.62c0,.29,0,.57-.02,.86s-.02,.59-.04,.91c-.01,.32-.02,.68-.04,1.09-.01,.4-.02,.88-.02,1.43,.14,.02,.42,.05,.84,.07,.42,.02,.86,.05,1.32,.07,.46,.02,.91,.05,1.34,.09,.43,.04,.71,.07,.86,.09,.02,0,.19-.01,.5-.04,.31-.02,.76-.06,1.35-.11,.81-.07,1.45-.11,1.93-.11h.43Z"/>
        <path class="cls-1" d="M108.33,145.11c-.19,.48-.36,.84-.5,1.09-.14,.25-.31,.49-.5,.71-.19,.23-.45,.5-.77,.82-.32,.32-.77,.78-1.34,1.37-.48,.5-.86,.91-1.16,1.23-.3,.32-.58,.61-.86,.87-.27,.26-.56,.54-.87,.84-.31,.3-.7,.67-1.18,1.12,0,.33-.01,.74-.04,1.21-.02,.48-.04,1.02-.04,1.64,0,.21,.01,.47,.04,.77,.02,.3,.05,.59,.09,.87,.04,.29,.07,.55,.09,.8,.02,.25,.04,.45,.04,.59v1c0,.88,.05,1.59,.14,2.14-.19,.71-.75,1.07-1.68,1.07-.4,0-.72-.12-.95-.36-.23-.24-.4-.55-.52-.95-.12-.39-.2-.84-.23-1.35-.04-.51-.05-1.05-.05-1.62,0-.19,0-.36,.02-.5s.03-.27,.05-.39c-.05-1.02-.09-1.88-.12-2.57-.04-.69-.05-1.21-.05-1.57v-.39c-.36-.38-.81-.88-1.35-1.5-.55-.62-1.19-1.34-1.92-2.17-.12-.24-.31-.53-.57-.89-.26-.36-.53-.71-.8-1.05s-.51-.67-.71-.96c-.2-.3-.3-.52-.3-.66,0-.4,.17-.8,.52-1.18s.75-.57,1.23-.57c.21,0,.39,.03,.52,.09,.13,.06,.26,.16,.39,.29,.13,.13,.27,.31,.43,.54,.15,.23,.36,.5,.62,.84s.48,.63,.66,.89c.18,.26,.33,.49,.45,.68,.07,.07,.22,.23,.45,.46,.23,.24,.47,.49,.73,.77,.26,.27,.5,.53,.73,.77,.23,.24,.39,.39,.48,.46,.26-.24,.59-.52,1-.86s.88-.72,1.43-1.18c.09-.19,.33-.56,.71-1.11,.38-.55,.81-1.12,1.3-1.73,.49-.61,.97-1.16,1.44-1.68,.48-.51,.86-.84,1.14-.98,.17,.07,.36,.18,.57,.34s.42,.33,.61,.53c.19,.2,.34,.41,.46,.62,.12,.21,.18,.42,.18,.61v.18Z"/>
        <path class="cls-1" d="M124.05,159.8c.78,.41,1.18,.99,1.18,1.75,0,.5-.12,.86-.37,1.07-.25,.21-.61,.36-1.07,.45-.46,.08-1.04,.13-1.73,.14-.69,.01-1.46,.04-2.32,.09-.29-.09-1.33-.19-3.14-.29-.26,.02-.51,.04-.75,.05-.24,.01-.46,.02-.68,.02-1.28,0-2.16-.19-2.64-.57-.12-.95-.21-1.83-.27-2.64-.06-.81-.09-1.54-.09-2.21,0-1.05,.04-1.96,.12-2.73,.08-.77,.12-1.47,.12-2.08,0-.76-.04-1.36-.11-1.78l.21-3.74c.09-.9,.21-1.68,.34-2.32,.13-.64,.29-1.13,.48-1.46,.14-.19,.86-.43,2.14-.71l2.28-.5c.14-.02,.44-.06,.89-.11,.45-.05,.92-.09,1.41-.14,.49-.05,.92-.08,1.3-.11,.38-.02,.56-.04,.53-.04h.14c.26,0,.53,.18,.8,.54,.27,.36,.41,.77,.41,1.25,0,.24,0,.45-.02,.64s-.09,.35-.23,.48-.38,.23-.71,.3c-.33,.07-.82,.12-1.46,.14-1.05,.05-1.76,.15-2.14,.32h-.18c-.62,0-1.39,.14-2.32,.43-.09,.12-.17,.33-.21,.62-.05,.3-.08,.61-.11,.93-.02,.32-.04,.59-.05,.82-.01,.23-.02,.3-.02,.23-.02,.12-.04,.24-.05,.36-.01,.12-.02,.27-.02,.46,0,.17,0,.35,.02,.55,.01,.2,.03,.42,.05,.66,.74-.07,1.34-.15,1.8-.23,.46-.08,.83-.12,1.09-.12,.5,0,.99-.01,1.46-.04,.48-.02,.9,0,1.27,.09,.37,.08,.66,.25,.87,.5,.21,.25,.32,.65,.32,1.19,0,.62-.2,1.02-.59,1.21s-1.08,.3-2.05,.32c-1.14,.05-1.83,.1-2.07,.14-.14,0-.29,0-.45-.02s-.33-.02-.52-.02c-.12,0-.26,0-.41-.02-.16-.01-.3-.01-.45,0-.14,.01-.27,.06-.38,.14-.11,.08-.16,.23-.16,.45,0,.14,0,.33,.02,.55s.02,.43,.02,.62c0,.29,0,.57-.02,.86s-.02,.59-.04,.91c-.01,.32-.02,.68-.04,1.09-.01,.4-.02,.88-.02,1.43,.14,.02,.42,.05,.84,.07,.42,.02,.86,.05,1.32,.07,.46,.02,.91,.05,1.34,.09,.43,.04,.71,.07,.86,.09,.02,0,.19-.01,.5-.04,.31-.02,.76-.06,1.35-.11,.81-.07,1.45-.11,1.93-.11h.43Z"/>
        <path class="cls-1" d="M144.34,155.31c-.31,1.24-1.19,2.66-2.64,4.28-.19,.07-.43,.21-.73,.43-.3,.21-.68,.43-1.14,.66-.46,.23-1.03,.42-1.69,.59-.67,.17-1.45,.25-2.35,.25-1.81,0-3.32-.48-4.53-1.44-1.21-.96-2.15-2.48-2.82-4.54-.02-.17-.04-.33-.04-.5v-.53c0-1.47,.15-2.77,.46-3.9,.31-1.13,.72-2.11,1.25-2.94,.52-.83,1.12-1.53,1.8-2.1,.68-.57,1.38-1.03,2.12-1.39,1.21-.33,2.4-.5,3.56-.5,.83,0,1.65,.21,2.46,.64,.81,.43,1.53,1.03,2.16,1.82,.63,.78,1.14,1.74,1.53,2.87,.39,1.13,.61,2.41,.66,3.83l-.07,2.5Zm-3.28-.11c.17-.97,.25-1.73,.25-2.28,0-.9-.13-1.74-.39-2.5-.26-.76-.57-1.42-.93-1.98s-.73-1-1.12-1.32c-.39-.32-.72-.48-.98-.48-1.26,0-2.29,.28-3.08,.84-.8,.56-1.42,1.23-1.87,2.01-.45,.78-.76,1.6-.93,2.46-.17,.86-.25,1.58-.25,2.17,0,.55,.09,1.08,.27,1.59,.18,.51,.44,.96,.78,1.36,.34,.39,.75,.71,1.23,.94,.47,.24,1.02,.36,1.64,.36,1.45,0,2.59-.27,3.42-.8,.83-.54,1.48-1.33,1.96-2.37Z"/>
        <path class="cls-1" d="M165.05,158.62c0,.14,.01,.32,.04,.53,.02,.21,.05,.44,.07,.68,.02,.24,.05,.46,.07,.66,.02,.2,.04,.35,.04,.45,0,1.02-.46,1.53-1.39,1.53-.76,0-1.3-.25-1.6-.75l-.32-2.57v-.29c0-.17-.01-.38-.04-.64-.02-.26-.05-.52-.09-.78-.04-.26-.07-.5-.09-.71s-.04-.37-.04-.46c.02-.17,.04-.33,.05-.48,.01-.15,.02-.31,.02-.48,0-.26-.01-.5-.04-.73-.02-.23-.06-.46-.11-.7-.19,.05-.59,.11-1.21,.2-.62,.08-1.38,.12-2.28,.12-.4,0-.78-.01-1.12-.04-.34-.02-.66-.06-.94-.11-.29-.14-1.2-.21-2.75-.21-.05,.55-.08,1.05-.11,1.51-.02,.46-.04,.89-.04,1.27,0,.78,.06,1.38,.18,1.78,.09,1.16,.17,2.04,.23,2.64,.06,.59,.1,1.02,.12,1.28,.02,.26,.04,.42,.04,.46v.18c0,.69-.48,1.03-1.43,1.03-.33,0-.62-.07-.87-.2-.25-.13-.46-.36-.62-.68-.17-.32-.3-.77-.39-1.34s-.15-1.28-.18-2.14c-.14-.59-.21-1.38-.21-2.35,0-.31,0-.59,.02-.86,.01-.26,.02-.49,.02-.68s0-.35-.02-.48c-.01-.13-.02-.24-.02-.34,0,.05,0-.11,0-.46s.02-.78,.05-1.27c.04-.49,.08-.97,.12-1.46s.12-.85,.21-1.09c0-.05,0-.1-.02-.16-.01-.06-.02-.12-.02-.2,0-.52,.02-.99,.07-1.39,.05-.4,.1-.8,.16-1.18,.06-.38,.13-.78,.21-1.19s.16-.91,.23-1.48c.12-.81,.26-1.4,.43-1.78,.17-.38,.55-.57,1.14-.57,.31,0,.64,.11,.98,.32,.34,.21,.52,.52,.52,.93,0,.21,0,.49-.02,.84-.01,.34-.04,.78-.09,1.32-.05,.53-.11,1.18-.18,1.94s-.17,1.66-.29,2.71c.31,.12,.74,.18,1.28,.18,.19,0,.35,0,.48-.02,.13-.01,.25-.02,.37-.02,.33,0,.56,.03,.7,.09,.13,.06,.35,.09,.66,.09,.64,0,1.13-.02,1.46-.05,.33-.04,.5-.04,.5-.02h.53c.48,0,.92-.02,1.34-.05,.42-.04,.62-.18,.62-.45,0-.64-.11-1.52-.32-2.64v-.64c0-.33-.01-.66-.04-.98-.02-.32-.07-.61-.14-.87,0-.95,.59-1.43,1.78-1.43,.55,0,.93,.28,1.16,.84,.23,.56,.38,1.22,.46,1.98,.08,.76,.13,1.54,.14,2.33,.01,.8,.09,1.43,.23,1.91,0,.62,.02,1.35,.05,2.19,.04,.84,.1,1.82,.2,2.94-.02,.12-.04,.26-.04,.43v1.23c0,.25,.01,.52,.04,.8Z"/>
        <path class="cls-1" d="M186.48,162.62c-.09,.45-.53,.68-1.32,.68-.64,0-1.1-.14-1.39-.43-.12-.4-.29-.9-.5-1.48-.21-.58-.46-1.25-.75-2.01-.14-.93-.28-1.58-.41-1.96-.13-.38-.29-.67-.48-.86-.36,.02-.87,.07-1.53,.12-.67,.06-1.37,.13-2.1,.21-.74,.08-1.43,.19-2.07,.32s-1.11,.27-1.39,.41c-.12,.59-.26,1.25-.43,1.96-.17,.71-.37,1.47-.61,2.28-.07,.24-.24,.41-.5,.52-.26,.11-.58,.16-.96,.16s-.71-.07-.98-.2c-.27-.13-.41-.33-.41-.59,0-.47,.29-1.89,.86-4.24-.02-.09-.04-.24-.04-.43,0-.31,.04-.7,.12-1.16,.08-.46,.17-.91,.27-1.34s.18-.8,.27-1.1c.08-.31,.12-.48,.12-.5l1.14-3.17c.05-.31,.17-.72,.37-1.25s.42-1.06,.66-1.6c.24-.55,.46-1.06,.68-1.55s.36-.86,.43-1.12c.21-.78,.79-1.18,1.71-1.18,.76,0,1.25,.29,1.46,.86,.29,.52,.55,.99,.78,1.39,.24,.4,.49,.85,.77,1.34,.27,.49,.53,.95,.77,1.39,.24,.44,.44,.83,.61,1.18s.26,.58,.29,.69c.19,.45,.43,.97,.71,1.55,.29,.58,.63,1.23,1.03,1.94,.24,.31,.46,.72,.66,1.23,.2,.51,.39,1.03,.55,1.55s.31,1,.43,1.43,.23,.71,.32,.86c0,.17,.05,.42,.16,.77,.11,.34,.21,.71,.32,1.09,.11,.38,.21,.74,.3,1.07s.14,.57,.14,.71c0,.12-.02,.27-.07,.46Zm-6.24-8.98c-.19-.57-.36-1.06-.52-1.46-.16-.4-.33-.81-.54-1.21s-.43-.86-.69-1.37c-.26-.51-.59-1.17-1-1.98-.55,1-.94,2.15-1.18,3.46-.5,.97-.86,2.01-1.07,3.1,.74-.21,1.33-.32,1.78-.32,.17,0,.29,.01,.36,.04,.4-.09,.89-.14,1.46-.14s1.03-.04,1.39-.11Z"/>
      </g>
      <path class="cls-1" d="M106.6,138.32c-11.04,0-19.69-4.86-21.17-5.74-39.79-12.14-63.85-55.15-67.39-61.84-3.24-.47-6.6-1.54-8.39-5.01-2.34-4.54-1.4-9.18,2.4-11.82,.95-.66,2.05-1.23,3.28-1.7,.06-.02,.23-.07,.45-.13,.02,0,.05-.01,.08-.02,8.99-26.73,26.55-28.39,32.56-28.13,.18-.85,.6-1.68,1.22-2.44,1.63-1.97,4.5-3.25,6.84-3.04,4.62,.41,7.63,3.61,7.69,8.16,0,.37,0,.7,0,.99,2.57,1.24,8.97,4.85,14.32,12.11,5.59,7.58,31.24,24.45,37.12,28.27,1.07-.98,2.91-2.19,5.51-2.4,4.29-.34,8.95,2.12,13.88,7.33,9.46,9.99,9.15,20.79,8.35,25.71,19.14-3.58,24.63-2.1,25.22-1.92,8.46,2.77,13.34,6.98,14.51,12.51,2.14,10.05-9.06,20.35-9.54,20.78-.05,.05-.11,.09-.17,.13-15.1,10.56-42.01,3.68-47.09,2.24-6.75,4.47-13.58,5.96-19.69,5.96ZM47,27.26c-6.06,0-20.4,2.69-28.16,26.65-.32,.97-1.14,1.19-2.18,1.47l-.19,.05c-.89,.34-1.75,.78-2.47,1.28-3.51,2.43-1.89,6.3-1.31,7.43,1.15,2.24,3.4,2.92,6.65,3.3,.57,.07,1.07,.42,1.33,.93,.25,.48,24.98,48.61,65.95,60.98,.15,.05,.3,.11,.43,.2,.79,.5,19.59,12.25,37.96-.48,.43-.3,.98-.38,1.48-.23,.3,.09,29.8,8.91,44.82-1.47,.92-.87,10.07-9.71,8.42-17.47-.91-4.25-5.02-7.6-12.22-9.96-.02,0-5.76-1.51-26.06,2.51-.6,.12-1.21-.09-1.61-.54-.4-.45-.54-1.09-.35-1.67,.17-.54,4.08-13.33-6.97-25.01-4.09-4.33-7.92-6.5-11.05-6.27-2.71,.19-4.1,2.11-4.16,2.19-.53,.75-1.56,.96-2.33,.47-1.33-.85-32.56-20.86-39.23-29.9-6.15-8.33-13.88-11.43-13.95-11.46-.6-.24-1.02-.79-1.08-1.43-.01-.12-.01-.25,0-.37,.01-.32,.03-1.66,.03-1.84-.03-2.82-1.66-4.52-4.57-4.78-1.09-.1-2.9,.61-3.9,1.81-.72,.87-.55,1.47-.49,1.67,.16,.58,.02,1.2-.39,1.63-.41,.44-1.01,.63-1.6,.51-.18-.04-1.2-.22-2.79-.22Z"/>
      <path class="cls-1" d="M80.5,82.45c-2.55,0-4.88-.35-6.98-1.04-.9-.3-1.38-1.27-1.08-2.17,.3-.9,1.27-1.38,2.17-1.08,3.93,1.31,8.99,1.14,15.03-.49,.91-.25,1.85,.29,2.1,1.21,.25,.91-.29,1.85-1.21,2.1-3.64,.98-6.99,1.47-10.03,1.47Z"/>
      <path class="cls-1" d="M78.72,65.4c-.12,0-.24-.01-.36-.04-.02,0-2.51-.52-5.03-.09-.94,.16-1.82-.47-1.97-1.41-.16-.93,.47-1.82,1.41-1.97,3.18-.53,6.19,.1,6.31,.12,.93,.2,1.52,1.11,1.32,2.03-.17,.8-.88,1.36-1.67,1.36Z"/>
      <path class="cls-1" d="M68.11,102.47c-.44,0-.88-.17-1.22-.51-.67-.67-.66-1.76,.01-2.42,4.7-4.65,4.66-10.94,3.81-15.41-.18-.93,.43-1.83,1.36-2,.93-.18,1.83,.43,2,1.36,1.43,7.47-.26,14.03-4.76,18.49-.33,.33-.77,.5-1.2,.5Z"/>
      <path class="cls-1" d="M55.73,88.07c-.07,0-.15,0-.22-.01-.94-.12-1.6-.98-1.48-1.92,.04-.28,.92-6.88,3.98-10.66,.59-.74,1.67-.85,2.41-.26,.74,.59,.85,1.67,.26,2.41-2.44,3.03-3.24,8.89-3.24,8.95-.11,.86-.85,1.49-1.7,1.49Z"/>
      <path class="cls-1" d="M137.67,105.33c-4.13,0-8.4-5.24-11.26-8.74-.63-.78-1.18-1.45-1.56-1.85l-6.94-7.36c-3.52-3.74-6.74-7.8-6.51-12.19,.12-2.36,1.26-4.48,3.38-6.29,.72-.62,1.8-.54,2.42,.18,.62,.72,.54,1.8-.18,2.42-1.4,1.2-2.11,2.47-2.19,3.88-.16,3.11,2.73,6.63,5.59,9.66l6.94,7.36c.46,.49,1.05,1.21,1.72,2.04,2.03,2.5,6.29,7.71,8.72,7.47,.21-.02,.83-.07,1.55-1.36,.55-.99,.84-2.44,.83-4.17,0-.95,.76-1.72,1.7-1.72h.01c.94,0,1.71,.76,1.71,1.7,.01,2.36-.41,4.33-1.26,5.86-1.32,2.38-3.04,3-4.24,3.11-.14,.01-.28,.02-.42,.02Z"/>
      <path class="cls-1" d="M88.01,133.76c-.77,0-1.46-.52-1.66-1.29-2.21-8.73-1.51-14.73,2.16-18.34,6.52-6.42,20.58-2.64,30.84,.12,5.48,1.48,8.86,3.98,10.04,7.44,1.67,4.9-1.87,9.64-2.03,9.84-.57,.75-1.65,.9-2.4,.32-.75-.57-.9-1.64-.33-2.4,.04-.05,2.6-3.52,1.51-6.68-.79-2.31-3.38-4.06-7.69-5.22-9.46-2.54-22.42-6.03-27.54-.98-2.68,2.64-3.1,7.71-1.24,15.06,.23,.92-.32,1.85-1.24,2.08-.14,.04-.28,.05-.42,.05Z"/>
      <path class="cls-1" d="M128.05,125.19c-.44,0-.87-.17-1.2-.49-.67-.67-.68-1.75-.01-2.42,7.73-7.83,10.08-18.73,10.1-18.84,.19-.93,1.1-1.52,2.02-1.33,.93,.19,1.52,1.1,1.33,2.02-.1,.49-2.55,11.99-11.02,20.55-.33,.34-.78,.51-1.22,.51Z"/>
      <path class="cls-1" d="M55.93,45.68c4.41,0,4.42-6.85,0-6.85s-4.42,6.85,0,6.85h0Z"/>
      <path class="cls-1" d="M35.18,64.61c4.41,0,4.42-6.85,0-6.85s-4.42,6.85,0,6.85h0Z"/>
      <path class="cls-1" d="M50.58,59.72c4.41,0,4.42-6.85,0-6.85s-4.42,6.85,0,6.85h0Z"/>
      <g>
        <path class="cls-1" d="M62.76,44.87c-.48,0-.96-.2-1.3-.6-.62-.72-.54-1.8,.18-2.42l5.84-5.03c.72-.62,1.8-.54,2.42,.18s.54,1.8-.18,2.42l-5.84,5.03c-.32,.28-.72,.41-1.12,.41Z"/>
        <path class="cls-1" d="M64.42,46.8c-.7,0-1.36-.44-1.61-1.13-.32-.89,.14-1.87,1.03-2.19l7.25-2.6c.89-.32,1.87,.14,2.19,1.03s-.14,1.87-1.03,2.19l-7.25,2.6c-.19,.07-.39,.1-.58,.1Z"/>
        <path class="cls-1" d="M64.41,49.76c-.78,0-1.49-.54-1.67-1.34-.21-.92,.37-1.84,1.29-2.05l8.46-1.9c.92-.21,1.84,.37,2.05,1.29,.21,.92-.37,1.84-1.29,2.05l-8.46,1.9c-.13,.03-.25,.04-.38,.04Z"/>
      </g>
      <g>
        <path class="cls-1" d="M29.65,76.04c-.49,0-.97-.21-1.31-.61-.61-.72-.52-1.8,.2-2.41l6.8-5.74c.72-.61,1.8-.52,2.41,.2,.61,.72,.52,1.8-.2,2.41l-6.8,5.74c-.32,.27-.71,.4-1.1,.4Z"/>
        <path class="cls-1" d="M33.52,79.72c-.31,0-.61-.08-.89-.25-.81-.49-1.06-1.55-.57-2.36l4.57-7.47c.49-.81,1.55-1.06,2.36-.57s1.06,1.55,.57,2.36l-4.57,7.47c-.32,.53-.89,.82-1.46,.82Z"/>
        <path class="cls-1" d="M37.12,81.33c-.24,0-.49-.05-.73-.16-.86-.4-1.23-1.42-.82-2.28l3.69-7.89c.4-.86,1.42-1.22,2.28-.82,.86,.4,1.23,1.42,.82,2.28l-3.69,7.89c-.29,.62-.91,.99-1.55,.99Z"/>
      </g>
      <g>
        <path class="cls-1" d="M66.63,86.75c-.92,0-1.52-.23-1.88-.44-.65-.29-2.02-1.45-5.83-7.35-.02-.04-.04-.07-.06-.11-.1-.19-2.45-4.6-3.96-7.82-1.33-2.84-.92-4.43-.39-5.25,.13-.82,.64-1.48,1.25-1.91,.44-1.06,1.22-1.67,1.92-1.98,.57-.81,1.47-1.22,2.22-1.39,1.87-1.79,3.78-1.85,4.99-1.49,1.08-.36,2.06-.22,2.77,.06,.92-.19,1.82,.11,2.46,.5,1.05,.04,1.82,.45,2.31,.92,1.99,1,2.51,4.13,2.61,4.93,1.32,6.78,.66,16.11-.02,17.66-.69,1.58-2.22,2.54-3.8,2.43,0,0,0,0,0,0-.28,0-1.15,.32-1.81,.66-.06,.03-.13,.06-.2,.09-1.05,.37-1.9,.5-2.58,.5Zm-.25-2.95h0s0,0,0,0Zm0,0h0s0,0,0,0Zm-.14-.1c.11,.04,.66,.16,1.88-.25,.59-.3,2.17-1.03,3.33-.94,.26,.01,.62-.2,.82-.64,.36-1.09,1.06-9.6-.18-15.93,0-.04-.01-.08-.02-.11-.15-1.23-.67-2.49-.98-2.66-.31-.09-.58-.28-.77-.54-.05-.03-.2-.09-.53-.06-.4,.03-.79-.09-1.1-.35-.1-.08-.29-.18-.39-.2-.53,.3-1.2,.25-1.68-.14-.06-.03-.43-.23-1.01,.08-.47,.25-1.04,.23-1.5-.05-.13-.06-1.05-.44-2.37,1.01-.26,.29-.63,.46-1.01,.49-.21,.02-.52,.13-.59,.21-.18,.56-.64,.93-1.22,1.01-.09,.02-.35,.15-.46,.62-.11,.48-.46,.88-.92,1.06-.02,0-.04,.02-.06,.03,0,.41-.16,.81-.45,1.09-.04,.16-.11,.83,.58,2.33,1.39,2.97,3.58,7.11,3.86,7.63,1.67,2.59,3.84,5.62,4.53,6.19,.08,.03,.15,.08,.23,.12Zm-9.43-16.09s0,0,0,0c0,0,0,0,0,0Zm0,0s0,0,0,0c0,0,0,0,0,0Zm0,0s0,0,0,0c0,0,0,0,0,0Zm.19-2.7h0Zm13.23-2.4h0Zm0,0s0,0,0,0c0,0,0,0,0,0Z"/>
        <path class="cls-1" d="M66.11,82.89c-.54,0-1.05-.29-1.32-.79l-4.98-9.32c-.39-.73-.12-1.64,.62-2.03,.73-.39,1.64-.11,2.03,.62l4.98,9.32c.39,.73,.12,1.64-.62,2.03-.23,.12-.47,.18-.71,.18Z"/>
        <path class="cls-1" d="M68.79,81.51c-.61,0-1.19-.38-1.41-.99l-4.29-11.91c-.28-.78,.12-1.64,.9-1.92,.78-.28,1.64,.12,1.92,.9l4.29,11.91c.28,.78-.12,1.64-.9,1.92-.17,.06-.34,.09-.51,.09Z"/>
        <path class="cls-1" d="M71.59,81.12c-.72,0-1.35-.51-1.48-1.24l-2-11.51c-.14-.82,.41-1.59,1.22-1.73,.82-.14,1.59,.41,1.73,1.22l2,11.51c.14,.82-.41,1.59-1.22,1.73-.09,.02-.17,.02-.26,.02Z"/>
      </g>
    </g>
  </g>
</svg>