<?xml version="1.0" encoding="UTF-8"?>
<svg id="Layer_2" data-name="Layer 2" xmlns="http://www.w3.org/2000/svg" viewBox="0 0 900 300">
  <defs>
    <style>
      .cls-1 {
        fill: #fff;
      }

      .cls-2 {
        fill: none;
      }
    </style>
  </defs>
  <g id="design">
    <g>
      <g>
        <g>
          <path class="cls-1" d="M195.65,168.05c-.29,1.16-.99,2.56-2.1,4.21-1.11,1.64-2.49,3.31-4.13,5-1.64,1.69-3.41,3.21-5.29,4.57-1.88,1.35-3.7,2.32-5.44,2.9-5.03,2.23-10.68,3.33-16.96,3.33-2.03,0-3.79-.05-5.29-.14-1.5-.1-2.97-.38-4.42-.87-1.45-.48-2.9-1.25-4.35-2.32-1.45-1.06-3.09-2.61-4.93-4.64-2.03-2.12-3.62-4.23-4.79-6.31-1.16-2.08-2.03-4.08-2.61-6.02-.58-1.93-.97-3.79-1.16-5.58-.2-1.79-.29-3.41-.29-4.86,0-3.19,.38-6.96,1.16-11.31,.77-4.35,2.85-9.67,6.24-15.95,1.25-2.32,2.22-4.15,2.9-5.51,.67-1.35,1.06-2.27,1.16-2.75l8.99-5.51c3.09-1.83,6.04-3.31,8.85-4.42,2.8-1.11,5.9-1.67,9.28-1.67h4.35c1.93,0,3.84,.22,5.73,.65,1.88,.43,3.55,1.21,5,2.32,1.45,1.11,2.17,2.73,2.17,4.86,0,3.58-2.13,5.65-6.38,6.23,.1,0-.19-.05-.87-.14-.68-.1-1.59-.19-2.75-.29-1.16-.1-2.46-.19-3.92-.29-1.45-.1-2.9-.15-4.35-.15-2.51,0-5.05,.7-7.61,2.1-2.56,1.4-5.68,3.79-9.35,7.18-1.94,4.06-3.36,7.23-4.28,9.5-.92,2.27-1.38,3.79-1.38,4.57-1.06,1.93-1.59,4.78-1.59,8.55,0,6.96,1.25,11.96,3.77,15.01,2.51,3.04,5.94,4.57,10.29,4.57,2.8,0,7.15-.77,13.05-2.32,3.58-2.12,6.67-5.51,9.28-10.15,1.64-1.64,3.33-2.46,5.07-2.46,1.84,0,3.48,.73,4.93,2.18,1.45,1.45,2.18,3.09,2.18,4.93,0,.19-.03,.36-.07,.51-.05,.14-.07,.31-.07,.51Z"/>
          <path class="cls-1" d="M276.27,188.93c-.39,1.84-2.17,2.75-5.36,2.75-2.61,0-4.5-.58-5.66-1.74-.48-1.65-1.16-3.65-2.03-6.02-.87-2.37-1.89-5.1-3.04-8.19-.58-3.77-1.14-6.43-1.67-7.98-.53-1.54-1.19-2.71-1.96-3.48-1.45,.1-3.53,.27-6.24,.51-2.71,.24-5.56,.53-8.55,.87-3,.34-5.8,.78-8.41,1.31-2.61,.53-4.5,1.09-5.65,1.67-.48,2.42-1.06,5.08-1.74,7.98-.68,2.9-1.5,5.99-2.46,9.28-.29,.97-.97,1.67-2.03,2.1-1.06,.44-2.37,.65-3.92,.65s-2.88-.27-3.99-.8c-1.11-.53-1.67-1.33-1.67-2.39,0-1.93,1.16-7.69,3.48-17.25-.1-.39-.15-.97-.15-1.74,0-1.25,.17-2.83,.51-4.71,.34-1.88,.7-3.7,1.09-5.44,.38-1.74,.75-3.24,1.09-4.5,.34-1.25,.51-1.93,.51-2.03l4.64-12.91c.19-1.25,.7-2.95,1.52-5.08,.82-2.12,1.71-4.3,2.68-6.52,.96-2.22,1.88-4.33,2.75-6.31,.87-1.98,1.45-3.5,1.74-4.57,.87-3.19,3.19-4.79,6.96-4.79,3.09,0,5.07,1.16,5.94,3.48,1.16,2.13,2.22,4.01,3.19,5.66,.97,1.64,2,3.46,3.12,5.44,1.11,1.98,2.15,3.87,3.12,5.66,.97,1.79,1.79,3.38,2.47,4.79,.67,1.4,1.06,2.34,1.16,2.83,.77,1.84,1.74,3.94,2.9,6.31,1.16,2.37,2.56,5,4.2,7.9,.97,1.26,1.86,2.92,2.68,5,.82,2.08,1.57,4.18,2.25,6.31,.68,2.13,1.26,4.06,1.74,5.8,.48,1.74,.92,2.9,1.3,3.48,0,.68,.22,1.72,.65,3.12,.44,1.4,.87,2.88,1.31,4.42,.44,1.55,.85,3,1.23,4.35,.39,1.36,.58,2.32,.58,2.9,0,.49-.1,1.11-.29,1.88Zm-25.38-36.54c-.77-2.32-1.47-4.3-2.1-5.94-.63-1.64-1.35-3.29-2.17-4.93-.82-1.64-1.77-3.5-2.83-5.58-1.06-2.08-2.42-4.76-4.06-8.05-2.22,4.06-3.82,8.75-4.78,14.07-2.03,3.96-3.48,8.17-4.35,12.62,3-.87,5.41-1.31,7.25-1.31,.68,0,1.16,.05,1.45,.15,1.64-.39,3.62-.58,5.95-.58s4.21-.15,5.65-.44Z"/>
          <path class="cls-1" d="M349.64,118.75c.29,.77,.44,1.64,.44,2.61,0,1.74-.46,3.5-1.38,5.29-.92,1.79-2.15,2.68-3.7,2.68-.29,0-.97-.14-2.03-.43-1.06-.29-2.25-.63-3.55-1.02-1.31-.38-2.61-.72-3.92-1.01-1.31-.29-2.35-.44-3.12-.44h-1.16c-3.09-.77-6.07-1.3-8.92-1.59-2.85-.29-5.58-.43-8.19-.43-.77,0-1.35,.31-1.74,.94-.39,.63-.68,1.38-.87,2.25-.19,.87-.29,1.79-.29,2.75v3.48c0,.58-.02,1.45-.07,2.61-.05,1.16-.12,2.32-.22,3.48-.1,1.16-.17,2.2-.22,3.12-.05,.92-.07,1.52-.07,1.81l10.73-.29c.1,0,.7-.05,1.81-.14,1.11-.09,2.44-.22,3.99-.36,1.54-.15,3.12-.27,4.71-.36,1.59-.1,2.88-.15,3.84-.15,2.03,0,3.53,.65,4.5,1.96,.97,1.3,1.45,2.83,1.45,4.57s-.31,3.04-.94,3.92c-.63,.87-1.67,1.5-3.12,1.88-1.45,.39-3.41,.68-5.87,.87-2.46,.19-5.54,.48-9.21,.87h-6.67c-1.45,0-3.1,.05-4.93,.14l.29,14.36c-.1,.77-.15,1.5-.15,2.17v2.17c0,3.96,.48,7.06,1.45,9.28-.29,4.54-2.37,6.81-6.24,6.81-2.03,0-3.6-.7-4.71-2.1-1.11-1.4-1.93-2.9-2.46-4.5-.53-1.59-.85-3.02-.94-4.28-.1-1.25-.15-1.69-.15-1.3-.39-2.03-.68-4.06-.87-6.09-.19-2.03-.29-4.06-.29-6.09,0-1.45,.02-3,.07-4.64,.05-1.64,.07-3.43,.07-5.36v-7.4c0-2.61-.1-5.41-.29-8.41,.29-14.11,1.93-24.02,4.93-29.72,.58-.77,2.8-1.16,6.67-1.16,7.44,0,11.17,.05,11.17,.14h.44c1.35,0,5.12,.68,11.31,2.03,8.6,.1,14.74,1.79,18.42,5.08Z"/>
          <path class="cls-1" d="M417.06,177.48c3.19,1.65,4.79,4.01,4.79,7.11,0,2.03-.51,3.48-1.52,4.35-1.02,.87-2.46,1.47-4.35,1.81-1.88,.34-4.23,.53-7.03,.58-2.8,.05-5.95,.17-9.42,.36-1.16-.39-5.42-.77-12.76-1.16-1.07,.09-2.08,.17-3.05,.22-.97,.05-1.88,.07-2.75,.07-5.22,0-8.8-.78-10.73-2.32-.48-3.87-.85-7.44-1.09-10.73-.24-3.29-.36-6.28-.36-8.99,0-4.25,.17-7.95,.51-11.09,.34-3.14,.51-5.97,.51-8.48,0-3.09-.15-5.51-.44-7.25l.87-15.23c.38-3.67,.84-6.81,1.38-9.42,.53-2.61,1.18-4.59,1.96-5.94,.58-.77,3.48-1.74,8.7-2.9l9.28-2.03c.58-.09,1.79-.24,3.62-.43,1.84-.19,3.75-.39,5.73-.58,1.98-.19,3.75-.34,5.29-.44,1.54-.09,2.27-.14,2.17-.14h.58c1.06,0,2.15,.72,3.26,2.17,1.11,1.45,1.67,3.14,1.67,5.08,0,.97-.02,1.84-.07,2.61-.05,.77-.36,1.43-.94,1.96-.58,.53-1.55,.94-2.9,1.23-1.35,.29-3.33,.49-5.94,.58-4.25,.2-7.16,.63-8.7,1.3h-.73c-2.51,0-5.65,.58-9.42,1.74-.39,.49-.68,1.33-.87,2.54-.19,1.21-.34,2.46-.43,3.77-.1,1.3-.17,2.42-.22,3.33-.05,.92-.07,1.23-.07,.94-.1,.49-.17,.97-.22,1.45-.05,.48-.07,1.11-.07,1.88,0,.68,.02,1.43,.07,2.25,.05,.82,.12,1.72,.22,2.68,3-.29,5.44-.6,7.32-.94,1.88-.34,3.36-.51,4.42-.51,2.03,0,4.01-.05,5.95-.15,1.93-.09,3.65,.03,5.15,.36,1.5,.34,2.68,1.02,3.55,2.03,.87,1.02,1.31,2.63,1.31,4.86,0,2.51-.8,4.16-2.39,4.93-1.6,.77-4.38,1.21-8.34,1.3-4.64,.19-7.44,.39-8.41,.58-.58,0-1.18-.02-1.81-.07-.63-.05-1.33-.07-2.1-.07-.48,0-1.04-.02-1.67-.07-.63-.05-1.23-.05-1.81,0-.58,.05-1.09,.24-1.52,.58-.44,.34-.65,.94-.65,1.81,0,.58,.02,1.33,.07,2.25,.05,.92,.07,1.77,.07,2.54,0,1.16-.02,2.32-.07,3.48-.05,1.16-.1,2.39-.15,3.7-.05,1.3-.1,2.78-.14,4.42-.05,1.65-.07,3.58-.07,5.8,.58,.1,1.71,.2,3.41,.29,1.69,.1,3.48,.2,5.37,.29,1.88,.1,3.7,.22,5.44,.36,1.74,.14,2.9,.27,3.48,.36,.1,0,.77-.05,2.03-.15,1.25-.09,3.09-.24,5.51-.43,3.29-.29,5.9-.44,7.83-.44h1.74Z"/>
          <path class="cls-1" d="M556.41,117.74c-.78,1.93-1.45,3.41-2.03,4.42-.58,1.02-1.26,1.98-2.03,2.9-.77,.92-1.81,2.03-3.12,3.33s-3.12,3.17-5.44,5.58c-1.93,2.03-3.5,3.7-4.71,5-1.21,1.3-2.37,2.49-3.48,3.55-1.11,1.06-2.3,2.2-3.55,3.41-1.26,1.21-2.85,2.73-4.79,4.57,0,1.35-.05,3-.14,4.93-.1,1.94-.15,4.16-.15,6.67,0,.87,.05,1.91,.15,3.12,.09,1.21,.22,2.39,.36,3.55,.15,1.16,.27,2.25,.36,3.26,.1,1.02,.15,1.81,.15,2.39v4.06c0,3.58,.19,6.48,.58,8.7-.78,2.9-3.04,4.35-6.82,4.35-1.64,0-2.92-.49-3.84-1.45-.92-.97-1.62-2.25-2.1-3.84-.49-1.59-.8-3.43-.94-5.51-.14-2.08-.22-4.28-.22-6.6,0-.77,.02-1.45,.07-2.03,.05-.58,.12-1.11,.22-1.6-.2-4.16-.36-7.63-.51-10.44-.15-2.8-.22-4.93-.22-6.38v-1.6c-1.45-1.54-3.29-3.58-5.51-6.09-2.22-2.51-4.83-5.46-7.83-8.84-.48-.96-1.26-2.17-2.32-3.62-1.06-1.45-2.15-2.88-3.26-4.28-1.11-1.4-2.08-2.71-2.9-3.92-.82-1.21-1.23-2.1-1.23-2.68,0-1.64,.7-3.24,2.1-4.79,1.4-1.54,3.07-2.32,5-2.32,.87,0,1.57,.12,2.1,.36,.53,.24,1.06,.63,1.6,1.16,.53,.53,1.11,1.26,1.74,2.18,.63,.92,1.47,2.05,2.54,3.41,1.06,1.35,1.96,2.56,2.68,3.62,.72,1.06,1.33,1.98,1.81,2.75,.29,.29,.89,.92,1.81,1.88,.92,.97,1.91,2.01,2.97,3.12,1.06,1.11,2.05,2.15,2.97,3.12,.92,.97,1.57,1.59,1.96,1.88,1.06-.96,2.42-2.12,4.06-3.48,1.64-1.35,3.58-2.95,5.8-4.79,.38-.77,1.35-2.27,2.9-4.5,1.54-2.22,3.31-4.57,5.29-7.03,1.98-2.46,3.94-4.74,5.87-6.82,1.93-2.08,3.48-3.41,4.64-3.99,.68,.29,1.45,.75,2.32,1.38,.87,.63,1.69,1.36,2.46,2.18,.77,.82,1.4,1.67,1.89,2.54,.48,.87,.72,1.69,.72,2.46v.73Z"/>
          <path class="cls-1" d="M620.35,177.48c3.19,1.65,4.79,4.01,4.79,7.11,0,2.03-.51,3.48-1.52,4.35-1.02,.87-2.46,1.47-4.35,1.81-1.88,.34-4.23,.53-7.03,.58-2.8,.05-5.95,.17-9.42,.36-1.16-.39-5.42-.77-12.76-1.16-1.07,.09-2.08,.17-3.05,.22-.97,.05-1.88,.07-2.75,.07-5.22,0-8.8-.78-10.73-2.32-.49-3.87-.85-7.44-1.09-10.73-.24-3.29-.36-6.28-.36-8.99,0-4.25,.17-7.95,.51-11.09,.34-3.14,.51-5.97,.51-8.48,0-3.09-.14-5.51-.43-7.25l.87-15.23c.38-3.67,.84-6.81,1.38-9.42,.53-2.61,1.18-4.59,1.96-5.94,.58-.77,3.48-1.74,8.7-2.9l9.28-2.03c.58-.09,1.79-.24,3.62-.43,1.84-.19,3.75-.39,5.73-.58,1.98-.19,3.75-.34,5.29-.44,1.54-.09,2.27-.14,2.17-.14h.58c1.06,0,2.15,.72,3.26,2.17,1.11,1.45,1.67,3.14,1.67,5.08,0,.97-.02,1.84-.07,2.61-.05,.77-.36,1.43-.94,1.96-.58,.53-1.55,.94-2.9,1.23-1.35,.29-3.33,.49-5.94,.58-4.25,.2-7.16,.63-8.7,1.3h-.73c-2.51,0-5.65,.58-9.42,1.74-.39,.49-.68,1.33-.87,2.54-.19,1.21-.34,2.46-.43,3.77-.1,1.3-.17,2.42-.22,3.33-.05,.92-.07,1.23-.07,.94-.1,.49-.17,.97-.22,1.45-.05,.48-.07,1.11-.07,1.88,0,.68,.02,1.43,.07,2.25,.05,.82,.12,1.72,.22,2.68,3-.29,5.44-.6,7.32-.94,1.88-.34,3.36-.51,4.42-.51,2.03,0,4.01-.05,5.95-.15,1.93-.09,3.65,.03,5.15,.36,1.5,.34,2.68,1.02,3.55,2.03,.87,1.02,1.31,2.63,1.31,4.86,0,2.51-.8,4.16-2.39,4.93-1.6,.77-4.38,1.21-8.34,1.3-4.64,.19-7.44,.39-8.41,.58-.58,0-1.18-.02-1.81-.07-.63-.05-1.33-.07-2.1-.07-.48,0-1.04-.02-1.67-.07-.63-.05-1.23-.05-1.81,0-.58,.05-1.09,.24-1.52,.58-.44,.34-.65,.94-.65,1.81,0,.58,.02,1.33,.07,2.25,.05,.92,.07,1.77,.07,2.54,0,1.16-.02,2.32-.07,3.48-.05,1.16-.1,2.39-.15,3.7-.05,1.3-.1,2.78-.14,4.42-.05,1.65-.07,3.58-.07,5.8,.58,.1,1.71,.2,3.41,.29,1.69,.1,3.48,.2,5.37,.29,1.88,.1,3.7,.22,5.44,.36,1.74,.14,2.9,.27,3.48,.36,.1,0,.77-.05,2.03-.15,1.25-.09,3.09-.24,5.51-.43,3.29-.29,5.9-.44,7.83-.44h1.74Z"/>
          <path class="cls-1" d="M702.86,159.21c-1.26,5.03-4.83,10.83-10.73,17.4-.78,.29-1.76,.87-2.97,1.74-1.21,.87-2.75,1.77-4.64,2.68-1.89,.92-4.18,1.72-6.89,2.39-2.71,.68-5.9,1.01-9.57,1.01-7.35,0-13.48-1.96-18.42-5.87-4.93-3.92-8.75-10.08-11.46-18.49-.1-.68-.14-1.35-.14-2.03v-2.17c0-5.99,.63-11.29,1.88-15.88,1.25-4.59,2.95-8.58,5.08-11.96,2.12-3.38,4.57-6.24,7.32-8.56,2.75-2.32,5.63-4.21,8.63-5.65,4.93-1.35,9.76-2.03,14.5-2.03,3.38,0,6.72,.87,10,2.61,3.29,1.74,6.21,4.21,8.77,7.39,2.56,3.19,4.64,7.08,6.23,11.67,1.6,4.59,2.49,9.79,2.68,15.59l-.29,10.15Zm-13.34-.44c.68-3.96,1.02-7.05,1.02-9.28,0-3.67-.53-7.06-1.6-10.15-1.06-3.09-2.32-5.78-3.77-8.05-1.45-2.27-2.97-4.06-4.57-5.37-1.6-1.31-2.92-1.96-3.99-1.96-5.12,0-9.3,1.14-12.54,3.41-3.24,2.27-5.78,5-7.61,8.19-1.84,3.19-3.09,6.52-3.77,10-.68,3.48-1.01,6.43-1.01,8.84,0,2.22,.36,4.38,1.09,6.45,.72,2.08,1.79,3.92,3.19,5.51,1.4,1.59,3.07,2.88,5,3.84,1.93,.97,4.16,1.45,6.67,1.45,5.89,0,10.54-1.09,13.92-3.26,3.38-2.17,6.04-5.39,7.97-9.64Z"/>
          <path class="cls-1" d="M787.1,172.69c0,.58,.05,1.3,.15,2.17,.09,.87,.19,1.79,.29,2.75,.09,.97,.19,1.86,.29,2.68,.1,.82,.15,1.43,.15,1.81,0,4.16-1.88,6.23-5.66,6.23-3.09,0-5.27-1.01-6.52-3.04l-1.31-10.44v-1.16c0-.67-.05-1.54-.14-2.61-.1-1.06-.22-2.12-.36-3.19-.15-1.06-.27-2.03-.36-2.9-.1-.87-.14-1.5-.14-1.88,.09-.67,.17-1.33,.22-1.96,.05-.63,.07-1.28,.07-1.96,0-1.06-.05-2.05-.15-2.97-.1-.92-.24-1.86-.43-2.83-.77,.19-2.42,.46-4.93,.8-2.52,.34-5.61,.51-9.28,.51-1.64,0-3.17-.05-4.57-.14-1.4-.1-2.68-.24-3.84-.44-1.16-.58-4.88-.87-11.17-.87-.19,2.22-.34,4.28-.43,6.16-.1,1.88-.15,3.6-.15,5.15,0,3.19,.24,5.61,.73,7.25,.38,4.74,.7,8.31,.94,10.73,.24,2.42,.41,4.16,.51,5.22,.1,1.06,.15,1.69,.15,1.89v.72c0,2.8-1.93,4.21-5.8,4.21-1.36,0-2.54-.27-3.55-.8-1.01-.53-1.86-1.45-2.54-2.75-.68-1.3-1.21-3.12-1.6-5.44-.39-2.32-.63-5.22-.72-8.7-.58-2.42-.87-5.6-.87-9.57,0-1.25,.02-2.42,.07-3.48,.05-1.06,.07-1.98,.07-2.75s-.02-1.42-.07-1.96c-.05-.53-.07-.99-.07-1.38,0,.2,0-.43,0-1.88s.07-3.17,.22-5.15c.14-1.98,.31-3.96,.51-5.95,.19-1.98,.48-3.46,.87-4.42,0-.19-.02-.41-.07-.65-.05-.24-.07-.51-.07-.8,0-2.12,.09-4.01,.29-5.66,.19-1.64,.41-3.24,.65-4.79,.24-1.54,.53-3.17,.87-4.86,.34-1.69,.65-3.7,.94-6.02,.48-3.29,1.06-5.7,1.74-7.25,.67-1.54,2.22-2.32,4.64-2.32,1.25,0,2.58,.44,3.99,1.31,1.4,.87,2.1,2.13,2.1,3.77,0,.87-.02,2.01-.07,3.41-.05,1.4-.17,3.19-.36,5.36-.2,2.18-.44,4.81-.73,7.9-.29,3.1-.68,6.77-1.16,11.02,1.25,.48,3,.72,5.22,.72,.77,0,1.42-.02,1.96-.07,.53-.05,1.04-.07,1.52-.07,1.35,0,2.29,.12,2.83,.36,.53,.24,1.42,.36,2.68,.36,2.61,0,4.59-.07,5.94-.22,1.35-.15,2.03-.17,2.03-.07h2.17c1.93,0,3.75-.07,5.44-.22,1.69-.15,2.54-.75,2.54-1.81,0-2.61-.44-6.19-1.31-10.73v-2.61c0-1.35-.05-2.68-.14-3.99-.1-1.3-.29-2.49-.58-3.55,0-3.86,2.42-5.8,7.25-5.8,2.22,0,3.79,1.14,4.71,3.41,.92,2.27,1.55,4.95,1.89,8.05,.34,3.09,.53,6.26,.58,9.5,.05,3.24,.36,5.82,.94,7.76,0,2.52,.07,5.49,.22,8.92,.15,3.43,.41,7.42,.8,11.96-.1,.49-.14,1.07-.14,1.74v5c0,1.01,.05,2.1,.14,3.26Z"/>
          <path class="cls-1" d="M874.25,188.93c-.39,1.84-2.18,2.75-5.37,2.75-2.61,0-4.5-.58-5.66-1.74-.48-1.65-1.16-3.65-2.03-6.02-.87-2.37-1.88-5.1-3.04-8.19-.58-3.77-1.14-6.43-1.67-7.98-.53-1.54-1.19-2.71-1.96-3.48-1.45,.1-3.53,.27-6.23,.51-2.71,.24-5.56,.53-8.56,.87-3,.34-5.8,.78-8.41,1.31-2.61,.53-4.5,1.09-5.66,1.67-.49,2.42-1.07,5.08-1.74,7.98-.68,2.9-1.5,5.99-2.46,9.28-.29,.97-.97,1.67-2.03,2.1-1.06,.44-2.37,.65-3.92,.65s-2.88-.27-3.99-.8c-1.11-.53-1.67-1.33-1.67-2.39,0-1.93,1.16-7.69,3.48-17.25-.1-.39-.14-.97-.14-1.74,0-1.25,.17-2.83,.51-4.71,.34-1.88,.7-3.7,1.09-5.44,.38-1.74,.75-3.24,1.09-4.5,.34-1.25,.51-1.93,.51-2.03l4.64-12.91c.19-1.25,.7-2.95,1.52-5.08,.82-2.12,1.72-4.3,2.68-6.52,.97-2.22,1.89-4.33,2.75-6.31,.87-1.98,1.45-3.5,1.74-4.57,.87-3.19,3.19-4.79,6.96-4.79,3.09,0,5.08,1.16,5.95,3.48,1.16,2.13,2.22,4.01,3.19,5.66,.96,1.64,2,3.46,3.12,5.44,1.11,1.98,2.15,3.87,3.12,5.66,.96,1.79,1.79,3.38,2.46,4.79,.68,1.4,1.06,2.34,1.16,2.83,.77,1.84,1.74,3.94,2.9,6.31,1.16,2.37,2.56,5,4.21,7.9,.96,1.26,1.86,2.92,2.68,5,.82,2.08,1.57,4.18,2.25,6.31,.67,2.13,1.25,4.06,1.74,5.8,.48,1.74,.92,2.9,1.3,3.48,0,.68,.22,1.72,.65,3.12,.44,1.4,.87,2.88,1.31,4.42,.43,1.55,.84,3,1.23,4.35,.38,1.36,.58,2.32,.58,2.9,0,.49-.1,1.11-.29,1.88Zm-25.38-36.54c-.78-2.32-1.48-4.3-2.1-5.94-.63-1.64-1.36-3.29-2.18-4.93-.82-1.64-1.76-3.5-2.83-5.58-1.06-2.08-2.42-4.76-4.06-8.05-2.23,4.06-3.82,8.75-4.79,14.07-2.03,3.96-3.48,8.17-4.35,12.62,3-.87,5.41-1.31,7.25-1.31,.68,0,1.16,.05,1.45,.15,1.64-.39,3.62-.58,5.95-.58s4.21-.15,5.66-.44Z"/>
        </g>
        <g>
          <path class="cls-1" d="M65.16,191.52c-3.51,0-5.67-.93-6.75-1.59-2.12-.98-7.48-5.36-22.81-29.12-.06-.09-.11-.18-.16-.28-.1-.19-9.95-18.7-16.08-31.8-5.29-11.31-3.39-17.05-1.47-19.65,.36-3.42,2.67-5.76,4.77-7.07,1.61-4.44,4.85-6.76,7.53-7.77,2.03-3.34,5.8-4.88,8.67-5.41,7.42-7.43,14.96-7.34,19.3-5.77,4.47-1.72,8.43-.99,11.06,.23,3.56-1.04,7.16,.34,9.52,1.89,4.66,0,7.37,1.97,8.7,3.36,7.49,3.37,9.44,15.69,9.81,18.62,5.5,28.12,2.3,65.63,.06,70.74-2.43,5.56-7.77,9-13.28,8.57-1.55-.12-5.68,1.42-8.58,2.93-.16,.09-.34,.16-.51,.22-4.02,1.41-7.23,1.89-9.75,1.89Zm-2.58-8.18c.61,.26,3.39,1.13,9.5-.97,1.81-.93,8.18-4,12.54-3.66,2.17,.16,4.45-1.44,5.54-3.93,1.4-3.67,4.68-39.46-.6-66.26-.02-.1-.03-.2-.05-.29-.57-4.68-2.86-11.9-5.52-12.67-1.07-.31-1.76-.67-2.21-1.65-.27-.27-1.35-1.11-3.94-.9-1.03,.09-2.06-.24-2.85-.91-.48-.4-2.79-1.92-3.95-1.17-1.41,.91-3.24,.81-4.55-.24-.22-.16-2.78-1.9-6.56,.1-1.23,.65-2.71,.59-3.88-.14-.51-.28-5.72-2.92-12.47,4.49-.68,.75-1.62,1.2-2.63,1.26-.76,.06-3.79,.63-4.31,2.3-.46,1.44-1.71,2.49-3.21,2.69-.41,.08-2.92,.69-3.74,4.22-.29,1.27-1.2,2.31-2.42,2.76-.11,.04-1.77,.75-1.65,1.84,.15,1.33-.4,2.64-1.44,3.47-.6,.79-1.29,4.27,2.21,11.76,5.76,12.31,14.9,29.55,15.83,31.3,7.21,11.16,16.44,24.04,19.21,26.01,.49,.11,.76,.2,1.14,.61Zm-.98-.5s0,0,0,0h0ZM23.89,113.88s0,0,0,0c0,0,0,0,0,0Zm.01,0s0,0-.01,0c0,0,0,0,.01,0Zm0,0s0,0,0,0h0Zm0,0s0,0,0,0c0,0,0,0,0,0Zm1.98-9.15h0Zm55.84-10.92h0Z"/>
          <path class="cls-1" d="M63.01,175.76c-1.39,0-2.74-.75-3.44-2.06l-20.32-38.01c-1.01-1.9-.3-4.25,1.6-5.27,1.9-1.01,4.25-.3,5.27,1.6l20.32,38.01c1.01,1.9,.3,4.25-1.6,5.27-.58,.31-1.21,.46-1.83,.46Z"/>
          <path class="cls-1" d="M73.93,170.17c-1.6,0-3.09-.99-3.66-2.57l-17.49-48.55c-.73-2.02,.32-4.25,2.34-4.98,2.02-.73,4.25,.32,4.98,2.34l17.49,48.55c.73,2.02-.32,4.25-2.34,4.98-.44,.16-.88,.23-1.32,.23Z"/>
          <path class="cls-1" d="M85.38,168.54c-1.86,0-3.5-1.33-3.83-3.23l-8.14-46.93c-.37-2.12,1.05-4.13,3.17-4.5,2.12-.36,4.13,1.05,4.5,3.17l8.14,46.93c.37,2.12-1.05,4.13-3.17,4.5-.22,.04-.45,.06-.67,.06Z"/>
        </g>
      </g>
      <rect class="cls-2" width="900" height="300"/>
    </g>
  </g>
</svg>